<svg xmlns="http://www.w3.org/2000/svg" xmlns:xlink="http://www.w3.org/1999/xlink" id="body_1" preserveAspectRatio="xMinYMin meet" viewBox="0 0 1280 720"><defs><clipPath id="1"><path d="M0 540L0 0L0 0L960 0L960 0L960 540L960 540L0 540z" /></clipPath><clipPath id="2"><path d="M0 539.9999L960 539.9999L960 539.9999L960 -0.0001220703L960 -0.0001220703L0 -0.0001220703z" /></clipPath><clipPath id="3"><path d="M0 539.9999L960 539.9999L960 539.9999L960 -0.0001220703L960 -0.0001220703L0 -0.0001220703z" /></clipPath><clipPath id="4"><path d="M0 539.9999L960 539.9999L960 539.9999L960 -0.0001220703L960 -0.0001220703L0 -0.0001220703z" /></clipPath><clipPath id="5"><path d="M0 539.9999L960 539.9999L960 539.9999L960 -0.0001220703L960 -0.0001220703L0 -0.0001220703z" /></clipPath><clipPath id="6"><path d="M0 539.9999L960 539.9999L960 539.9999L960 -0.0001220703L960 -0.0001220703L0 -0.0001220703z" /></clipPath><clipPath id="7"><path d="M0 539.9999L960 539.9999L960 539.9999L960 -0.0001220703L960 -0.0001220703L0 -0.0001220703z" /></clipPath><clipPath id="8"><path d="M0 539.9999L960 539.9999L960 539.9999L960 -0.0001220703L960 -0.0001220703L0 -0.0001220703z" /></clipPath><clipPath id="9"><path d="M0 539.9999L960 539.9999L960 539.9999L960 -0.0001220703L960 -0.0001220703L0 -0.0001220703z" /></clipPath><clipPath id="10"><path d="M0 539.9999L960 539.9999L960 539.9999L960 -0.0001220703L960 -0.0001220703L0 -0.0001220703z" /></clipPath><clipPath id="11"><path d="M0 539.9999L960 539.9999L960 539.9999L960 -0.0001220703L960 -0.0001220703L0 -0.0001220703z" /></clipPath><clipPath id="12"><path d="M0 539.9999L960 539.9999L960 539.9999L960 -0.0001220703L960 -0.0001220703L0 -0.0001220703z" /></clipPath><clipPath id="13"><path d="M0 539.9999L960 539.9999L960 539.9999L960 -0.0001220703L960 -0.0001220703L0 -0.0001220703z" /></clipPath><clipPath id="14"><path d="M0 539.9999L960 539.9999L960 539.9999L960 -0.0001220703L960 -0.0001220703L0 -0.0001220703z" /></clipPath><clipPath id="15"><path d="M0 539.9999L960 539.9999L960 539.9999L960 -0.0001220703L960 -0.0001220703L0 -0.0001220703z" /></clipPath><clipPath id="16"><path d="M0 539.9999L960 539.9999L960 539.9999L960 -0.0001220703L960 -0.0001220703L0 -0.0001220703z" /></clipPath><clipPath id="17"><path d="M0 539.9999L960 539.9999L960 539.9999L960 -0.0001220703L960 -0.0001220703L0 -0.0001220703z" /></clipPath><clipPath id="18"><path d="M0 539.9999L960 539.9999L960 539.9999L960 -0.0001220703L960 -0.0001220703L0 -0.0001220703z" /></clipPath></defs><g transform="matrix(1.333333 0 0 1.333333 0 0)"><g><g clip-path="url(#1)"><g clip-path="url(#2)"><path transform="matrix(1 0 0 -1 0 540)" d="M0 6.104E-06L960 6.104E-06L960 6.104E-06L960 540L960 540L0 540z" stroke="none" fill="#E1EAE7" fill-rule="evenodd" /></g><path transform="matrix(1 0 0 -1 0 540)" d="M0 246.37L102.13 246.37L102.13 246.37L102.13 337.495L102.13 337.495L0 337.495z" stroke="none" fill="#5BBBA5" fill-rule="evenodd" /><g clip-path="url(#3)"><path transform="matrix(1 0 0 -1 0 540)" d="M868 246.37L960 246.37L960 246.37L960 337.495L960 337.495L868 337.495z" stroke="none" fill="#5BBBA5" fill-rule="evenodd" /></g><g clip-path="url(#4)"><path transform="matrix(1 0 0 -1 0 540)" d="M128.25 6.104E-06L170 6.104E-06L170 6.104E-06L170 91.25001L170 91.25001L128.25 91.25001z" stroke="none" fill="#FFC000" fill-rule="evenodd" /></g><g clip-path="url(#5)"><path transform="matrix(1 0 0 -1 0 540)" d="M183.13 6.104E-06L218.38 6.104E-06L218.38 6.104E-06L218.38 58.25001L218.38 58.25001L183.13 58.25001z" stroke="none" fill="#F4A03B" fill-rule="evenodd" /></g><g clip-path="url(#6)"><path transform="matrix(1 0 0 -1 0 540)" d="M231.63 6.104E-06L273.38 6.104E-06L273.38 6.104E-06L273.38 79.25001L273.38 79.25001L231.63 79.25001z" stroke="none" fill="#87BB3B" fill-rule="evenodd" /></g><g clip-path="url(#7)"><path transform="matrix(1 0 0 -1 0 540)" d="M286.63 6.104E-06L324.06 95.5L324.06 95.5L361.5 6.104E-06z" stroke="none" fill="#ED7D31" fill-rule="evenodd" /></g><g clip-path="url(#8)"><path transform="matrix(1 0 0 -1 0 540)" d="M374.75 6.104E-06L403.88 58.25L403.88 58.25L433 6.104E-06z" stroke="none" fill="#87BB3B" fill-rule="evenodd" /></g><g clip-path="url(#9)"><path transform="matrix(1 0 0 -1 0 540)" d="M449 6.104E-06L478.38 95.5L478.38 95.5L507.75 6.104E-06z" stroke="none" fill="#FBCE45" fill-rule="evenodd" /></g><g clip-path="url(#10)"><path transform="matrix(1 0 0 -1 0 540)" d="M531.5 6.104E-06L573.125 6.104E-06L573.125 6.104E-06L573.125 91.25001L573.125 91.25001L531.5 91.25001z" stroke="none" fill="#FFC000" fill-rule="evenodd" /></g><g clip-path="url(#11)"><path transform="matrix(1 0 0 -1 0 540)" d="M586.25 6.104E-06L621.5 6.104E-06L621.5 6.104E-06L621.5 58.25001L621.5 58.25001L586.25 58.25001z" stroke="none" fill="#F4A03B" fill-rule="evenodd" /></g><g clip-path="url(#12)"><path transform="matrix(1 0 0 -1 0 540)" d="M634.75 6.104E-06L676.5 6.104E-06L676.5 6.104E-06L676.5 79.25001L676.5 79.25001L634.75 79.25001z" stroke="none" fill="#87BB3B" fill-rule="evenodd" /></g><g clip-path="url(#13)"><path transform="matrix(1 0 0 -1 0 540)" d="M689.75 6.104E-06L727.19 95.5L727.19 95.5L764.63 6.104E-06z" stroke="none" fill="#ED7D31" fill-rule="evenodd" /></g><g clip-path="url(#14)"><path transform="matrix(1 0 0 -1 0 540)" d="M777.88 6.104E-06L807.06 58.25L807.06 58.25L836.25 6.104E-06z" stroke="none" fill="#87BB3B" fill-rule="evenodd" /></g><g clip-path="url(#15)"><path transform="matrix(1 0 0 -1 0 540)" d="M852.13 6.104E-06L881.5 95.5L881.5 95.5L910.87 6.104E-06z" stroke="none" fill="#FBCE45" fill-rule="evenodd" /></g><g clip-path="url(#16)"><path transform="matrix(1 0 0 -1 0 540)" d="M51.25 6.104E-06L80.625 95.5L80.625 95.5L110 6.104E-06z" stroke="none" fill="#FBCE45" fill-rule="evenodd" /></g><g clip-path="url(#17)"><path transform="matrix(1 0 0 -1 0 540)" d="M0.045906 486.73L255.16 486.87" stroke="#BFBFBF" stroke-width="1" fill="none" /></g><g clip-path="url(#18)"><path transform="matrix(1 0 0 -1 0 540)" d="M704.88 485.16L960 485.3" stroke="#BFBFBF" stroke-width="1" fill="none" /></g></g></g></g></svg>