<svg xmlns="http://www.w3.org/2000/svg" xmlns:xlink="http://www.w3.org/1999/xlink" id="body_9" preserveAspectRatio="xMinYMin meet" viewBox="0 0 1280 720"><defs><clipPath id="1"><path d="M0 540L0 0L0 0L960 0L960 0L960 540L960 540L0 540z" /></clipPath><clipPath id="2"><path d="M0 539.9999L960 539.9999L960 539.9999L960 -0.0001220703L960 -0.0001220703L0 -0.0001220703z" /></clipPath><clipPath id="3"><path d="M0 539.9999L960 539.9999L960 539.9999L960 -0.0001220703L960 -0.0001220703L0 -0.0001220703z" /></clipPath><clipPath id="4"><path d="M0 539.9999L960 539.9999L960 539.9999L960 -0.0001220703L960 -0.0001220703L0 -0.0001220703z" /></clipPath><clipPath id="5"><path d="M0 539.9999L960 539.9999L960 539.9999L960 -0.0001220703L960 -0.0001220703L0 -0.0001220703z" /></clipPath></defs><g transform="matrix(1.333333 0 0 1.333333 0 0)"><g><g clip-path="url(#1)"><g clip-path="url(#2)"><path transform="matrix(1 0 0 -1 0 540)" d="M0 6.104E-06L960 6.104E-06L960 6.104E-06L960 540L960 540L0 540z" stroke="none" fill="#E1EAE7" fill-rule="evenodd" /></g><path transform="matrix(1 0 0 -1 0 540)" d="M228.86 439.69L681.04 375.38L681.04 375.38L641.32 167.32L641.32 167.32L262.9 178.67L262.9 178.67L228.86 439.69z" stroke="none" fill="#27A98C" fill-rule="evenodd" fill-opacity="0.5215687" /><path transform="matrix(1 0 0 -1 0 540)" d="M286.43 416.99L727.14 415.1L727.14 415.1L649.59 167.32L649.59 167.32L284.54 210.82L284.54 210.82L286.43 416.99z" stroke="none" fill="#27A98C" fill-rule="evenodd" fill-opacity="0.5215687" /><path transform="matrix(1 0 0 -1 0 540)" d="M825.06 388.2C 825.06 392.23 828.34 395.51 832.38 395.51C 832.38 395.51 832.38 395.51 832.38 395.51L832.38 395.51L832.38 395.51C 836.41 395.51 839.69 392.23 839.69 388.2C 839.69 388.2 839.69 388.2 839.69 388.2L839.69 388.2L839.69 388.2C 839.69 384.16 836.41 380.88 832.38 380.88C 832.38 380.88 832.38 380.88 832.38 380.88L832.38 380.88L832.38 380.88C 828.34 380.88 825.06 384.16 825.06 388.2C 825.06 388.2 825.06 388.2 825.06 388.2z" stroke="none" fill="#5B9081" fill-rule="evenodd" fill-opacity="0.4" /><path transform="matrix(1 0 0 -1 0 540)" d="M850.95 407.82C 850.95 417.76 859.01 425.82 868.95 425.82C 868.95 425.82 868.95 425.82 868.95 425.82L868.95 425.82L868.95 425.82C 878.9 425.82 886.95 417.76 886.95 407.82C 886.95 407.82 886.95 407.82 886.95 407.82L886.95 407.82L886.95 407.82C 886.95 397.88 878.9 389.82 868.95 389.82C 868.95 389.82 868.95 389.82 868.95 389.82L868.95 389.82L868.95 389.82C 859.01 389.82 850.95 397.88 850.95 407.82C 850.95 407.82 850.95 407.82 850.95 407.82z" stroke="none" fill="#5BBBA5" fill-rule="evenodd" /><path transform="matrix(1 0 0 -1 0 540)" d="M802.79 494.04C 802.79 512.31 817.61 527.12 835.87 527.12C 835.87 527.12 835.87 527.12 835.87 527.12L835.87 527.12L835.87 527.12C 854.14 527.12 868.95 512.31 868.95 494.04C 868.95 494.04 868.95 494.04 868.95 494.04L868.95 494.04L868.95 494.04C 868.95 475.77 854.14 460.96 835.87 460.96C 835.87 460.96 835.87 460.96 835.87 460.96L835.87 460.96L835.87 460.96C 817.61 460.96 802.79 475.77 802.79 494.04C 802.79 494.04 802.79 494.04 802.79 494.04z" stroke="none" fill="#5B9081" fill-rule="evenodd" fill-opacity="0.4" /><g clip-path="url(#3)"><path transform="matrix(1 0 0 -1 0 540)" d="M871.87 505.12C 871.87 534.33 895.55 558 924.75 558C 924.75 558 924.75 558 924.75 558L924.75 558L924.75 558C 953.95 558 977.62 534.33 977.62 505.12C 977.62 505.12 977.62 505.12 977.62 505.12L977.62 505.12L977.62 505.12C 977.62 475.92 953.95 452.25 924.75 452.25C 924.75 452.25 924.75 452.25 924.75 452.25L924.75 452.25L924.75 452.25C 895.55 452.25 871.87 475.92 871.87 505.12C 871.87 505.12 871.87 505.12 871.87 505.12z" stroke="none" fill="#5BBBA5" fill-rule="evenodd" fill-opacity="0.4" /></g><path transform="matrix(1 0 0 -1 0 540)" d="M871.87 461.04C 871.87 473.19 881.73 483.04 893.88 483.04C 893.88 483.04 893.88 483.04 893.88 483.04L893.88 483.04L893.88 483.04C 906.04 483.04 915.89 473.19 915.89 461.04C 915.89 461.04 915.89 461.04 915.89 461.04L915.89 461.04L915.89 461.04C 915.89 448.88 906.04 439.03 893.88 439.03C 893.88 439.03 893.88 439.03 893.88 439.03L893.88 439.03L893.88 439.03C 881.73 439.03 871.87 448.88 871.87 461.04C 871.87 461.04 871.87 461.04 871.87 461.04z" stroke="none" fill="#5B9081" fill-rule="evenodd" fill-opacity="0.4" /><path transform="matrix(1 0 0 -1 0 540)" d="M915.89 513.59C 915.89 525.74 925.74 535.59 937.89 535.59C 937.89 535.59 937.89 535.59 937.89 535.59L937.89 535.59L937.89 535.59C 950.05 535.59 959.9 525.74 959.9 513.59C 959.9 513.59 959.9 513.59 959.9 513.59L959.9 513.59L959.9 513.59C 959.9 501.43 950.05 491.58 937.89 491.58C 937.89 491.58 937.89 491.58 937.89 491.58L937.89 491.58L937.89 491.58C 925.74 491.58 915.89 501.43 915.89 513.59C 915.89 513.59 915.89 513.59 915.89 513.59z" stroke="none" fill="#5B9081" fill-rule="evenodd" fill-opacity="0.4" /><path transform="matrix(1 0 0 -1 0 540)" d="M126.35 146.11C 126.35 142.07 123.08 138.79 119.04 138.79C 119.04 138.79 119.04 138.79 119.04 138.79L119.04 138.79L119.04 138.79C 115 138.79 111.73 142.07 111.73 146.11C 111.73 146.11 111.73 146.11 111.73 146.11L111.73 146.11L111.73 146.11C 111.73 150.15 115 153.42 119.04 153.42C 119.04 153.42 119.04 153.42 119.04 153.42L119.04 153.42L119.04 153.42C 123.08 153.42 126.35 150.15 126.35 146.11C 126.35 146.11 126.35 146.11 126.35 146.11z" stroke="none" fill="#5B9081" fill-rule="evenodd" fill-opacity="0.4" /><path transform="matrix(1 0 0 -1 0 540)" d="M100.46 126.48C 100.46 116.54 92.401 108.48 82.46 108.48C 82.46 108.48 82.46 108.48 82.46 108.48L82.46 108.48L82.46 108.48C 72.519 108.48 64.46 116.54 64.46 126.48C 64.46 126.48 64.46 126.48 64.46 126.48L64.46 126.48L64.46 126.48C 64.46 136.42 72.519 144.48 82.46 144.48C 82.46 144.48 82.46 144.48 82.46 144.48L82.46 144.48L82.46 144.48C 92.401 144.48 100.46 136.42 100.46 126.48C 100.46 126.48 100.46 126.48 100.46 126.48z" stroke="none" fill="#5BBBA5" fill-rule="evenodd" /><path transform="matrix(1 0 0 -1 0 540)" d="M148.62 40.259C 148.62 21.989 133.81 7.1789 115.54 7.1789C 115.54 7.1789 115.54 7.1789 115.54 7.1789L115.54 7.1789L115.54 7.1789C 97.27 7.1789 82.46 21.989 82.46 40.259C 82.46 40.259 82.46 40.259 82.46 40.259L82.46 40.259L82.46 40.259C 82.46 58.528 97.27 73.339 115.54 73.339C 115.54 73.339 115.54 73.339 115.54 73.339L115.54 73.339L115.54 73.339C 133.81 73.339 148.62 58.528 148.62 40.259C 148.62 40.259 148.62 40.259 148.62 40.259z" stroke="none" fill="#5B9081" fill-rule="evenodd" fill-opacity="0.4" /><g clip-path="url(#4)"><path transform="matrix(1 0 0 -1 0 540)" d="M79.54 29.178C 79.54 -0.024048 55.867 -23.697 26.665 -23.697C 26.665 -23.697 26.665 -23.697 26.665 -23.697L26.665 -23.697L26.665 -23.697C -2.5375 -23.697 -26.21 -0.023987 -26.21 29.178C -26.21 29.178 -26.21 29.178 -26.21 29.178L-26.21 29.178L-26.21 29.178C -26.21 58.38 -2.5375 82.053 26.665 82.053C 26.665 82.053 26.665 82.053 26.665 82.053L26.665 82.053L26.665 82.053C 55.867 82.053 79.54 58.38 79.54 29.178C 79.54 29.178 79.54 29.178 79.54 29.178z" stroke="none" fill="#5BBBA5" fill-rule="evenodd" fill-opacity="0.4" /></g><path transform="matrix(1 0 0 -1 0 540)" d="M79.54 73.265C 79.54 61.111 69.687 51.259 57.533 51.259C 57.533 51.259 57.533 51.259 57.533 51.259L57.533 51.259L57.533 51.259C 45.379 51.259 35.526 61.111 35.526 73.265C 35.526 73.265 35.526 73.265 35.526 73.265L35.526 73.265L35.526 73.265C 35.526 85.419 45.379 95.272 57.533 95.272C 57.533 95.272 57.533 95.272 57.533 95.272L57.533 95.272L57.533 95.272C 69.687 95.272 79.54 85.419 79.54 73.265C 79.54 73.265 79.54 73.265 79.54 73.265z" stroke="none" fill="#5B9081" fill-rule="evenodd" fill-opacity="0.4" /><g clip-path="url(#5)"><path transform="matrix(1 0 0 -1 0 540)" d="M35.526 20.717C 35.526 8.563 25.674 -1.2897 13.52 -1.2897C 13.52 -1.2897 13.52 -1.2897 13.52 -1.2897L13.52 -1.2897L13.52 -1.2897C 1.3659 -1.2897 -8.4868 8.563 -8.4868 20.717C -8.4868 20.717 -8.4868 20.717 -8.4868 20.717L-8.4868 20.717L-8.4868 20.717C -8.4868 32.871 1.3659 42.724 13.52 42.724C 13.52 42.724 13.52 42.724 13.52 42.724L13.52 42.724L13.52 42.724C 25.674 42.724 35.526 32.871 35.526 20.717C 35.526 20.717 35.526 20.717 35.526 20.717z" stroke="none" fill="#5B9081" fill-rule="evenodd" fill-opacity="0.4" /></g></g></g></g></svg>