<svg xmlns="http://www.w3.org/2000/svg" xmlns:xlink="http://www.w3.org/1999/xlink" id="body_2" preserveAspectRatio="xMinYMin meet" viewBox="0 0 1280 720"><defs><clipPath id="1"><path d="M0 540L0 0L0 0L960 0L960 0L960 540L960 540L0 540z" /></clipPath><clipPath id="2"><path d="M0 539.9999L960 539.9999L960 539.9999L960 -0.0001220703L960 -0.0001220703L0 -0.0001220703z" /></clipPath><clipPath id="3"><path d="M0 539.9999L960 539.9999L960 539.9999L960 -0.0001220703L960 -0.0001220703L0 -0.0001220703z" /></clipPath><clipPath id="4"><path d="M0 539.9999L960 539.9999L960 539.9999L960 -0.0001220703L960 -0.0001220703L0 -0.0001220703z" /></clipPath><clipPath id="5"><path d="M2.49E-07 539.9998L960 539.9998L960 539.9998L960 -0.0002441406L960 -0.0002441406L2.49E-07 -0.0002441406z" /></clipPath></defs><g transform="matrix(1.333333 0 0 1.333333 0 0)"><g><g clip-path="url(#1)"><g clip-path="url(#2)"><path transform="matrix(1 0 0 -1 0 540)" d="M0 6.104E-06L960 6.104E-06L960 6.104E-06L960 540L960 540L0 540z" stroke="none" fill="#E1EAE7" fill-rule="evenodd" /></g><g clip-path="url(#3)"><path transform="matrix(1 0 0 -1 0 540)" d="M0 540L0 436.32L0 436.32L87.75 540z" stroke="none" fill="#27A98C" fill-rule="evenodd" /></g><g clip-path="url(#4)"><path transform="matrix(1 0 0 -1 0 540)" d="M960 6.104E-06L869.63 6.104E-06L869.63 6.104E-06L960 112.21z" stroke="none" fill="#5A514A" fill-rule="evenodd" /></g><path transform="matrix(1 0 0 -1 0 540)" d="M402.31 471L780.5 471L780.5 471L780.69 471L780.69 471L780.69 470.98L780.69 470.98L788.35 470.2C 806.09 466.57 819.44 450.87 819.44 432.06C 819.44 413.24 806.09 397.54 788.35 393.91L788.35 393.91L780.69 393.14L780.69 393.14L780.69 393.12L780.69 393.12L780.5 393.12L780.5 393.12L402.31 393.12z" stroke="none" fill="#D9D9D9" fill-rule="evenodd" /><path transform="matrix(1 0 0 -1 0 540)" d="M362.44 432.06C 362.44 453.56 379.87 471 401.38 471C 401.38 471 401.38 471 401.38 471L401.38 471L401.38 471C 422.88 471 440.31 453.56 440.31 432.06C 440.31 432.06 440.31 432.06 440.31 432.06L440.31 432.06L440.31 432.06C 440.31 410.55 422.88 393.12 401.38 393.12C 401.38 393.12 401.38 393.12 401.38 393.12L401.38 393.12L401.38 393.12C 379.87 393.12 362.44 410.55 362.44 432.06C 362.44 432.06 362.44 432.06 362.44 432.06z" stroke="none" fill="#5BBBA5" fill-rule="evenodd" /><path transform="matrix(1 0 0 -1 0 540)" d="M367.81 432.06C 367.81 450.59 382.84 465.62 401.38 465.62C 401.38 465.62 401.38 465.62 401.38 465.62L401.38 465.62L401.38 465.62C 419.91 465.62 434.94 450.59 434.94 432.06C 434.94 432.06 434.94 432.06 434.94 432.06L434.94 432.06L434.94 432.06C 434.94 413.52 419.91 398.5 401.38 398.5C 401.38 398.5 401.38 398.5 401.38 398.5L401.38 398.5L401.38 398.5C 382.84 398.5 367.81 413.52 367.81 432.06C 367.81 432.06 367.81 432.06 367.81 432.06z" stroke="#FFFFFF" stroke-width="1" stroke-dasharray="4,3" fill="none" /><path transform="matrix(1 0 0 -1 0 540)" d="M402.31 362.96L780.5 362.96L780.5 362.96L780.69 362.96L780.69 362.96L780.69 362.94L780.69 362.94L788.35 362.17C 806.09 358.53 819.44 342.84 819.44 324.02C 819.44 305.2 806.09 289.5 788.35 285.87L788.35 285.87L780.69 285.1L780.69 285.1L780.69 285.08L780.69 285.08L780.5 285.08L780.5 285.08L402.31 285.08z" stroke="none" fill="#D9D9D9" fill-rule="evenodd" /><path transform="matrix(1 0 0 -1 0 540)" d="M362.44 324.02C 362.44 345.52 379.87 362.96 401.38 362.96C 401.38 362.96 401.38 362.96 401.38 362.96L401.38 362.96L401.38 362.96C 422.88 362.96 440.31 345.52 440.31 324.02C 440.31 324.02 440.31 324.02 440.31 324.02L440.31 324.02L440.31 324.02C 440.31 302.51 422.88 285.08 401.38 285.08C 401.38 285.08 401.38 285.08 401.38 285.08L401.38 285.08L401.38 285.08C 379.87 285.08 362.44 302.51 362.44 324.02C 362.44 324.02 362.44 324.02 362.44 324.02z" stroke="none" fill="#5BBBA5" fill-rule="evenodd" /><path transform="matrix(1 0 0 -1 0 540)" d="M367.81 324.02C 367.81 342.56 382.84 357.58 401.38 357.58C 401.38 357.58 401.38 357.58 401.38 357.58L401.38 357.58L401.38 357.58C 419.91 357.58 434.94 342.56 434.94 324.02C 434.94 324.02 434.94 324.02 434.94 324.02L434.94 324.02L434.94 324.02C 434.94 305.48 419.91 290.46 401.38 290.46C 401.38 290.46 401.38 290.46 401.38 290.46L401.38 290.46L401.38 290.46C 382.84 290.46 367.81 305.48 367.81 324.02C 367.81 324.02 367.81 324.02 367.81 324.02z" stroke="#FFFFFF" stroke-width="1" stroke-dasharray="4,3" fill="none" /><path transform="matrix(1 0 0 -1 0 540)" d="M402.31 254.92L780.5 254.92L780.5 254.92L780.69 254.92L780.69 254.92L780.69 254.9L780.69 254.9L788.35 254.13C 806.09 250.5 819.44 234.8 819.44 215.98C 819.44 197.16 806.09 181.47 788.35 177.83L788.35 177.83L780.69 177.06L780.69 177.06L780.69 177.04L780.69 177.04L780.5 177.04L780.5 177.04L402.31 177.04z" stroke="none" fill="#D9D9D9" fill-rule="evenodd" /><path transform="matrix(1 0 0 -1 0 540)" d="M362.44 215.98C 362.44 237.49 379.87 254.92 401.38 254.92C 401.38 254.92 401.38 254.92 401.38 254.92L401.38 254.92L401.38 254.92C 422.88 254.92 440.31 237.49 440.31 215.98C 440.31 215.98 440.31 215.98 440.31 215.98L440.31 215.98L440.31 215.98C 440.31 194.48 422.88 177.04 401.38 177.04C 401.38 177.04 401.38 177.04 401.38 177.04L401.38 177.04L401.38 177.04C 379.87 177.04 362.44 194.48 362.44 215.98C 362.44 215.98 362.44 215.98 362.44 215.98z" stroke="none" fill="#5BBBA5" fill-rule="evenodd" /><path transform="matrix(1 0 0 -1 0 540)" d="M367.81 215.98C 367.81 234.52 382.84 249.54 401.38 249.54C 401.38 249.54 401.38 249.54 401.38 249.54L401.38 249.54L401.38 249.54C 419.91 249.54 434.94 234.52 434.94 215.98C 434.94 215.98 434.94 215.98 434.94 215.98L434.94 215.98L434.94 215.98C 434.94 197.44 419.91 182.42 401.38 182.42C 401.38 182.42 401.38 182.42 401.38 182.42L401.38 182.42L401.38 182.42C 382.84 182.42 367.81 197.44 367.81 215.98C 367.81 215.98 367.81 215.98 367.81 215.98z" stroke="#FFFFFF" stroke-width="1" stroke-dasharray="4,3" fill="none" /><path transform="matrix(1 0 0 -1 0 540)" d="M402.31 146.88L780.5 146.88L780.5 146.88L780.69 146.88L780.69 146.88L780.69 146.86L780.69 146.86L788.35 146.09C 806.09 142.46 819.44 126.76 819.44 107.94C 819.44 89.126 806.09 73.427 788.35 69.796L788.35 69.796L780.69 69.024L780.69 69.024L780.69 69.005L780.69 69.005L780.5 69.005L780.5 69.005L402.31 69.005z" stroke="none" fill="#D9D9D9" fill-rule="evenodd" /><path transform="matrix(1 0 0 -1 0 540)" d="M362.44 107.94C 362.44 129.45 379.87 146.88 401.38 146.88C 401.38 146.88 401.38 146.88 401.38 146.88L401.38 146.88L401.38 146.88C 422.88 146.88 440.31 129.45 440.31 107.94C 440.31 107.94 440.31 107.94 440.31 107.94L440.31 107.94L440.31 107.94C 440.31 86.438 422.88 69.005 401.38 69.005C 401.38 69.005 401.38 69.005 401.38 69.005L401.38 69.005L401.38 69.005C 379.87 69.005 362.44 86.438 362.44 107.94C 362.44 107.94 362.44 107.94 362.44 107.94z" stroke="none" fill="#5BBBA5" fill-rule="evenodd" /><path transform="matrix(1 0 0 -1 0 540)" d="M367.81 107.94C 367.81 126.48 382.84 141.5 401.38 141.5C 401.38 141.5 401.38 141.5 401.38 141.5L401.38 141.5L401.38 141.5C 419.91 141.5 434.94 126.48 434.94 107.94C 434.94 107.94 434.94 107.94 434.94 107.94L434.94 107.94L434.94 107.94C 434.94 89.406 419.91 74.38 401.38 74.38C 401.38 74.38 401.38 74.38 401.38 74.38L401.38 74.38L401.38 74.38C 382.84 74.38 367.81 89.406 367.81 107.94C 367.81 107.94 367.81 107.94 367.81 107.94z" stroke="#FFFFFF" stroke-width="1" stroke-dasharray="4,3" fill="none" /><g clip-path="url(#5)"><g transform="matrix(0.327123 0 0 0.3274104 52.602 194.15)"><g transform="matrix(1 0 0 1 0 0)"><image x="0" y="0" xlink:href="img_02.png" width="862" height="502" /></g></g></g></g></g></g></svg>