<svg xmlns="http://www.w3.org/2000/svg" xmlns:xlink="http://www.w3.org/1999/xlink" id="body_8" preserveAspectRatio="xMinYMin meet" viewBox="0 0 1280 720"><defs><clipPath id="1"><path d="M0 540L0 0L0 0L960 0L960 0L960 540L960 540L0 540z" /></clipPath><clipPath id="2"><path d="M0 539.9999L960 539.9999L960 539.9999L960 -0.0001220703L960 -0.0001220703L0 -0.0001220703z" /></clipPath></defs><g transform="matrix(1.333333 0 0 1.333333 0 0)"><g><g clip-path="url(#1)"><g clip-path="url(#2)"><path transform="matrix(1 0 0 -1 0 540)" d="M0 6.104E-06L960 6.104E-06L960 6.104E-06L960 540L960 540L0 540z" stroke="none" fill="#E1EAE7" fill-rule="evenodd" /></g><path transform="matrix(1 0 0 -1 0 540)" d="M0 519.6L188.4 519.6L188.4 519.6L176.2 468L176.2 468L0 468L0 468L0 519.6z" stroke="none" fill="#27A98C" fill-rule="evenodd" fill-opacity="0.5568628" /><path transform="matrix(1 0 0 -1 0 540)" d="M0 524.4L188.4 524.4L188.4 524.4L157.2 468L157.2 468L0 468L0 468L0 524.4z" stroke="none" fill="#27A98C" fill-rule="evenodd" /><path transform="matrix(1 0 0 -1 0 540)" d="M93.129 343.62C 93.129 351.77 99.733 358.37 107.88 358.37C 107.88 358.37 107.88 358.37 107.88 358.37L107.88 358.37L107.88 358.37L107.88 358.37L249.74 358.37L249.74 358.37L249.74 358.37C 257.89 358.37 264.49 351.77 264.49 343.62C 264.49 343.62 264.49 343.62 264.49 343.62L264.49 343.62L264.49 343.62L264.49 343.62L264.49 215.37L264.49 215.37L264.49 215.37C 264.49 207.22 257.89 200.62 249.74 200.62C 249.74 200.62 249.74 200.62 249.74 200.62L249.74 200.62L249.74 200.62L249.74 200.62L107.88 200.62L107.88 200.62L107.88 200.62C 99.733 200.62 93.129 207.22 93.129 215.37C 93.129 215.37 93.129 215.37 93.129 215.37z" stroke="none" fill="#27A98C" fill-rule="evenodd" /><path transform="matrix(1 0 0 -1 0 540)" d="M81.689 262.95L275.93 262.95L275.93 262.95L275.93 84.728L275.93 84.728L275.93 84.728L275.93 84.728L275.93 72.496C 275.93 67.252 269.33 63 261.18 63L261.18 63L96.439 63C 88.293 63 81.689 67.252 81.689 72.496L81.689 72.496L81.689 155.07L81.689 155.07L81.689 155.07z" stroke="none" fill="#D9D9D9" fill-rule="evenodd" /><path transform="matrix(1 0 0 -1 0 540)" d="M147.31 262.95C 147.31 280.34 161.41 294.45 178.81 294.45C 178.81 294.45 178.81 294.45 178.81 294.45L178.81 294.45L178.81 294.45C 196.21 294.45 210.31 280.34 210.31 262.95C 210.31 262.95 210.31 262.95 210.31 262.95L210.31 262.95L210.31 262.95C 210.31 245.55 196.21 231.45 178.81 231.45C 178.81 231.45 178.81 231.45 178.81 231.45L178.81 231.45L178.81 231.45C 161.41 231.45 147.31 245.55 147.31 262.95C 147.31 262.95 147.31 262.95 147.31 262.95z" stroke="none" fill="#27A98C" fill-rule="evenodd" /><path transform="matrix(1 0 0 -1 0 540)" d="M293.92 343.62C 293.92 351.77 300.53 358.37 308.67 358.37C 308.67 358.37 308.67 358.37 308.67 358.37L308.67 358.37L308.67 358.37L308.67 358.37L450.54 358.37L450.54 358.37L450.54 358.37C 458.68 358.37 465.29 351.77 465.29 343.62C 465.29 343.62 465.29 343.62 465.29 343.62L465.29 343.62L465.29 343.62L465.29 343.62L465.29 215.37L465.29 215.37L465.29 215.37C 465.29 207.22 458.68 200.62 450.54 200.62C 450.54 200.62 450.54 200.62 450.54 200.62L450.54 200.62L450.54 200.62L450.54 200.62L308.67 200.62L308.67 200.62L308.67 200.62C 300.53 200.62 293.92 207.22 293.92 215.37C 293.92 215.37 293.92 215.37 293.92 215.37z" stroke="none" fill="#27A98C" fill-rule="evenodd" /><path transform="matrix(1 0 0 -1 0 540)" d="M282.48 262.95L476.73 262.95L476.73 262.95L476.73 84.728L476.73 84.728L476.73 84.728L476.73 84.728L476.73 72.496C 476.73 67.252 470.12 63 461.98 63L461.98 63L297.23 63C 289.09 63 282.48 67.252 282.48 72.496L282.48 72.496L282.48 155.07L282.48 155.07L282.48 155.07z" stroke="none" fill="#D9D9D9" fill-rule="evenodd" /><path transform="matrix(1 0 0 -1 0 540)" d="M348.1 262.95C 348.1 280.34 362.21 294.45 379.6 294.45C 379.6 294.45 379.6 294.45 379.6 294.45L379.6 294.45L379.6 294.45C 397 294.45 411.1 280.34 411.1 262.95C 411.1 262.95 411.1 262.95 411.1 262.95L411.1 262.95L411.1 262.95C 411.1 245.55 397 231.45 379.6 231.45C 379.6 231.45 379.6 231.45 379.6 231.45L379.6 231.45L379.6 231.45C 362.21 231.45 348.1 245.55 348.1 262.95C 348.1 262.95 348.1 262.95 348.1 262.95z" stroke="none" fill="#27A98C" fill-rule="evenodd" /><path transform="matrix(1 0 0 -1 0 540)" d="M494.71 343.62C 494.71 351.77 501.32 358.37 509.46 358.37C 509.46 358.37 509.46 358.37 509.46 358.37L509.46 358.37L509.46 358.37L509.46 358.37L651.33 358.37L651.33 358.37L651.33 358.37C 659.47 358.37 666.08 351.77 666.08 343.62C 666.08 343.62 666.08 343.62 666.08 343.62L666.08 343.62L666.08 343.62L666.08 343.62L666.08 215.37L666.08 215.37L666.08 215.37C 666.08 207.22 659.47 200.62 651.33 200.62C 651.33 200.62 651.33 200.62 651.33 200.62L651.33 200.62L651.33 200.62L651.33 200.62L509.46 200.62L509.46 200.62L509.46 200.62C 501.32 200.62 494.71 207.22 494.71 215.37C 494.71 215.37 494.71 215.37 494.71 215.37z" stroke="none" fill="#27A98C" fill-rule="evenodd" /><path transform="matrix(1 0 0 -1 0 540)" d="M483.27 262.95L677.52 262.95L677.52 262.95L677.52 84.728L677.52 84.728L677.52 84.728L677.52 84.728L677.52 72.496C 677.52 67.252 670.91 63 662.77 63L662.77 63L498.02 63C 489.88 63 483.27 67.252 483.27 72.496L483.27 72.496L483.27 155.07L483.27 155.07L483.27 155.07z" stroke="none" fill="#D9D9D9" fill-rule="evenodd" /><path transform="matrix(1 0 0 -1 0 540)" d="M548.9 262.95C 548.9 280.34 563 294.45 580.4 294.45C 580.4 294.45 580.4 294.45 580.4 294.45L580.4 294.45L580.4 294.45C 597.79 294.45 611.9 280.34 611.9 262.95C 611.9 262.95 611.9 262.95 611.9 262.95L611.9 262.95L611.9 262.95C 611.9 245.55 597.79 231.45 580.4 231.45C 580.4 231.45 580.4 231.45 580.4 231.45L580.4 231.45L580.4 231.45C 563 231.45 548.9 245.55 548.9 262.95C 548.9 262.95 548.9 262.95 548.9 262.95z" stroke="none" fill="#27A98C" fill-rule="evenodd" /><path transform="matrix(1 0 0 -1 0 540)" d="M695.51 343.62C 695.51 351.77 702.11 358.37 710.26 358.37C 710.26 358.37 710.26 358.37 710.26 358.37L710.26 358.37L710.26 358.37L710.26 358.37L852.12 358.37L852.12 358.37L852.12 358.37C 860.27 358.37 866.87 351.77 866.87 343.62C 866.87 343.62 866.87 343.62 866.87 343.62L866.87 343.62L866.87 343.62L866.87 343.62L866.87 215.37L866.87 215.37L866.87 215.37C 866.87 207.22 860.27 200.62 852.12 200.62C 852.12 200.62 852.12 200.62 852.12 200.62L852.12 200.62L852.12 200.62L852.12 200.62L710.26 200.62L710.26 200.62L710.26 200.62C 702.11 200.62 695.51 207.22 695.51 215.37C 695.51 215.37 695.51 215.37 695.51 215.37z" stroke="none" fill="#27A98C" fill-rule="evenodd" /><path transform="matrix(1 0 0 -1 0 540)" d="M684.07 262.95L878.31 262.95L878.31 262.95L878.31 84.728L878.31 84.728L878.31 84.728L878.31 84.728L878.31 72.496C 878.31 67.252 871.71 63 863.56 63L863.56 63L698.82 63C 690.67 63 684.07 67.252 684.07 72.496L684.07 72.496L684.07 155.07L684.07 155.07L684.07 155.07z" stroke="none" fill="#D9D9D9" fill-rule="evenodd" /><path transform="matrix(1 0 0 -1 0 540)" d="M749.69 262.95C 749.69 280.34 763.79 294.45 781.19 294.45C 781.19 294.45 781.19 294.45 781.19 294.45L781.19 294.45L781.19 294.45C 798.59 294.45 812.69 280.34 812.69 262.95C 812.69 262.95 812.69 262.95 812.69 262.95L812.69 262.95L812.69 262.95C 812.69 245.55 798.59 231.45 781.19 231.45C 781.19 231.45 781.19 231.45 781.19 231.45L781.19 231.45L781.19 231.45C 763.79 231.45 749.69 245.55 749.69 262.95C 749.69 262.95 749.69 262.95 749.69 262.95z" stroke="none" fill="#27A98C" fill-rule="evenodd" /><path transform="matrix(1 0 0 -1 0 540)" d="M85 402L887 401.87" stroke="#51B8A1" stroke-width="1" fill="none" /></g></g></g></svg>