<svg xmlns="http://www.w3.org/2000/svg" xmlns:xlink="http://www.w3.org/1999/xlink" id="body_22" preserveAspectRatio="xMinYMin meet" viewBox="0 0 1280 720"><defs><clipPath id="1"><path d="M0 540L0 0L0 0L960 0L960 0L960 540L960 540L0 540z" /></clipPath><clipPath id="2"><path d="M0 539.9999L960 539.9999L960 539.9999L960 -0.0001220703L960 -0.0001220703L0 -0.0001220703z" /></clipPath><clipPath id="3"><path d="M-2.98E-07 539.9998L960 539.9998L960 539.9998L960 -0.0001831055L960 -0.0001831055L-2.98E-07 -0.0001831055z" /></clipPath><clipPath id="4"><path d="M-3.909E-06 539.9998L960 539.9998L960 539.9998L960 -0.0001831055L960 -0.0001831055L-3.909E-06 -0.0001831055z" /></clipPath><clipPath id="5"><path d="M9.5E-08 539.9997L960 539.9997L960 539.9997L960 -0.0003051758L960 -0.0003051758L9.5E-08 -0.0003051758z" /></clipPath></defs><g transform="matrix(1.333333 0 0 1.333333 0 0)"><g><g clip-path="url(#1)"><g clip-path="url(#2)"><path transform="matrix(1 0 0 -1 0 540)" d="M0 6.104E-06L960 6.104E-06L960 6.104E-06L960 540L960 540L0 540z" stroke="none" fill="#E1EAE7" fill-rule="evenodd" /></g><path transform="matrix(1 0 0 -1 0 540)" d="M0 519.6L188.4 519.6L188.4 519.6L176.2 468L176.2 468L0 468L0 468L0 519.6z" stroke="none" fill="#27A98C" fill-rule="evenodd" fill-opacity="0.5568628" /><path transform="matrix(1 0 0 -1 0 540)" d="M0 524.4L188.4 524.4L188.4 524.4L157.2 468L157.2 468L0 468L0 468L0 524.4z" stroke="none" fill="#27A98C" fill-rule="evenodd" /><g clip-path="url(#3)"><g transform="matrix(0.3602771 0 0 0.36 53 96.00198)"><g transform="matrix(1 0 0 1 0 0)"><image x="0" y="0" xlink:href="img_42.png" width="866" height="1156" /></g></g></g><path transform="matrix(1 0 0 -1 0 540)" d="M348.85 28L459 28L459 28L459 443.61L459 443.61L348.85 443.61z" stroke="none" fill="#D9D9D9" fill-rule="evenodd" /><g clip-path="url(#4)"><g transform="matrix(0.3603789 0 0 0.3603098 615.72 94.758)"><g transform="matrix(1 0 0 1 0 0)"><image x="0" y="0" xlink:href="img_56.png" width="871" height="1162" /></g></g></g><g clip-path="url(#5)"><g transform="matrix(0.413314 0 0 0.4134718 53.957 95.20401)"><g transform="matrix(1 0 0 1 0 0)"><image x="0" y="0" xlink:href="img_57.png" width="1382" height="1011" /></g></g></g><path transform="matrix(1 0 0 -1 0 540)" d="M492.08 426.21C 492.08 429 494.34 431.26 497.13 431.26C 497.13 431.26 497.13 431.26 497.13 431.26L497.13 431.26L497.13 431.26L497.13 431.26L599.75 431.26L599.75 431.26L599.75 431.26C 602.54 431.26 604.8 429 604.8 426.21C 604.8 426.21 604.8 426.21 604.8 426.21L604.8 426.21L604.8 426.21L604.8 426.21L604.8 406.01L604.8 406.01L604.8 406.01C 604.8 403.23 602.54 400.97 599.75 400.97C 599.75 400.97 599.75 400.97 599.75 400.97L599.75 400.97L599.75 400.97L599.75 400.97L497.13 400.97L497.13 400.97L497.13 400.97C 494.34 400.97 492.08 403.23 492.08 406.01C 492.08 406.01 492.08 406.01 492.08 406.01z" stroke="none" fill="#7F7F7F" fill-rule="evenodd" /><path transform="matrix(1 0 0 -1 0 540)" d="M492.08 426.21C 492.08 429 494.34 431.26 497.13 431.26C 497.13 431.26 497.13 431.26 497.13 431.26L497.13 431.26L497.13 431.26L497.13 431.26L599.75 431.26L599.75 431.26L599.75 431.26C 602.54 431.26 604.8 429 604.8 426.21C 604.8 426.21 604.8 426.21 604.8 426.21L604.8 426.21L604.8 426.21L604.8 426.21L604.8 406.01L604.8 406.01L604.8 406.01C 604.8 403.23 602.54 400.97 599.75 400.97C 599.75 400.97 599.75 400.97 599.75 400.97L599.75 400.97L599.75 400.97L599.75 400.97L497.13 400.97L497.13 400.97L497.13 400.97C 494.34 400.97 492.08 403.23 492.08 406.01C 492.08 406.01 492.08 406.01 492.08 406.01z" stroke="#FFFFFF" stroke-width="1" fill="none" /><path transform="matrix(1 0 0 -1 0 540)" d="M804.99 426.21C 804.99 429 807.25 431.26 810.04 431.26C 810.04 431.26 810.04 431.26 810.04 431.26L810.04 431.26L810.04 431.26L810.04 431.26L912.66 431.26L912.66 431.26L912.66 431.26C 915.45 431.26 917.71 429 917.71 426.21C 917.71 426.21 917.71 426.21 917.71 426.21L917.71 426.21L917.71 426.21L917.71 426.21L917.71 406.01L917.71 406.01L917.71 406.01C 917.71 403.23 915.45 400.97 912.66 400.97C 912.66 400.97 912.66 400.97 912.66 400.97L912.66 400.97L912.66 400.97L912.66 400.97L810.04 400.97L810.04 400.97L810.04 400.97C 807.25 400.97 804.99 403.23 804.99 406.01C 804.99 406.01 804.99 406.01 804.99 406.01z" stroke="none" fill="#7F7F7F" fill-rule="evenodd" /><path transform="matrix(1 0 0 -1 0 540)" d="M804.99 426.21C 804.99 429 807.25 431.26 810.04 431.26C 810.04 431.26 810.04 431.26 810.04 431.26L810.04 431.26L810.04 431.26L810.04 431.26L912.66 431.26L912.66 431.26L912.66 431.26C 915.45 431.26 917.71 429 917.71 426.21C 917.71 426.21 917.71 426.21 917.71 426.21L917.71 426.21L917.71 426.21L917.71 426.21L917.71 406.01L917.71 406.01L917.71 406.01C 917.71 403.23 915.45 400.97 912.66 400.97C 912.66 400.97 912.66 400.97 912.66 400.97L912.66 400.97L912.66 400.97L912.66 400.97L810.04 400.97L810.04 400.97L810.04 400.97C 807.25 400.97 804.99 403.23 804.99 406.01C 804.99 406.01 804.99 406.01 804.99 406.01z" stroke="#FFFFFF" stroke-width="1" fill="none" /></g></g></g></svg>