<svg xmlns="http://www.w3.org/2000/svg" xmlns:xlink="http://www.w3.org/1999/xlink" id="body_21" preserveAspectRatio="xMinYMin meet" viewBox="0 0 1280 720"><defs><clipPath id="1"><path d="M0 540L0 0L0 0L960 0L960 0L960 540L960 540L0 540z" /></clipPath><clipPath id="2"><path d="M0 539.9999L960 539.9999L960 539.9999L960 -0.0001220703L960 -0.0001220703L0 -0.0001220703z" /></clipPath><clipPath id="3"><path d="M-9.962E-06 539.9998L960 539.9998L960 539.9998L960 -0.0001831055L960 -0.0001831055L-9.962E-06 -0.0001831055z" /></clipPath><clipPath id="4"><path d="M-3.61E-07 539.9998L960 539.9998L960 539.9998L960 -0.0001831055L960 -0.0001831055L-3.61E-07 -0.0001831055z" /></clipPath><clipPath id="5"><path d="M-8.8E-07 539.9998L960 539.9998L960 539.9998L960 -0.0002441406L960 -0.0002441406L-8.8E-07 -0.0002441406z" /></clipPath><clipPath id="6"><path d="M-3.85E-07 539.9998L960 539.9998L960 539.9998L960 -0.0001831055L960 -0.0001831055L-3.85E-07 -0.0001831055z" /></clipPath></defs><g transform="matrix(1.333333 0 0 1.333333 0 0)"><g><g clip-path="url(#1)"><g clip-path="url(#2)"><path transform="matrix(1 0 0 -1 0 540)" d="M0 6.104E-06L960 6.104E-06L960 6.104E-06L960 540L960 540L0 540z" stroke="none" fill="#E1EAE7" fill-rule="evenodd" /></g><g clip-path="url(#3)"><g transform="matrix(0.3216648 0 0 0.3216591 618.99 95.33899)"><g transform="matrix(1 0 0 1 0 0)"><image x="0" y="0" xlink:href="img_51.png" width="913" height="1314" /></g></g></g><path transform="matrix(1 0 0 -1 0 540)" d="M0 519.6L188.4 519.6L188.4 519.6L176.2 468L176.2 468L0 468L0 468L0 519.6z" stroke="none" fill="#27A98C" fill-rule="evenodd" fill-opacity="0.5568628" /><path transform="matrix(1 0 0 -1 0 540)" d="M0 524.4L188.4 524.4L188.4 524.4L157.2 468L157.2 468L0 468L0 468L0 524.4z" stroke="none" fill="#27A98C" fill-rule="evenodd" /><g clip-path="url(#4)"><g transform="matrix(0.2873679 0 0 0.2872806 40.679 95.34)"><g transform="matrix(1 0 0 1 0 0)"><image x="0" y="0" xlink:href="img_52.png" width="927" height="923" /></g></g></g><path transform="matrix(1 0 0 -1 0 540)" d="M71.503 55.614C 71.503 58.402 73.763 60.662 76.551 60.662C 76.551 60.662 76.551 60.662 76.551 60.662L76.551 60.662L76.551 60.662L76.551 60.662L201.02 60.662L201.02 60.662L201.02 60.662C 203.81 60.662 206.07 58.402 206.07 55.614C 206.07 55.614 206.07 55.614 206.07 55.614L206.07 55.614L206.07 55.614L206.07 55.614L206.07 35.421L206.07 35.421L206.07 35.421C 206.07 32.633 203.81 30.372 201.02 30.372C 201.02 30.372 201.02 30.372 201.02 30.372L201.02 30.372L201.02 30.372L201.02 30.372L76.551 30.372L76.551 30.372L76.551 30.372C 73.763 30.372 71.503 32.633 71.503 35.421C 71.503 35.421 71.503 35.421 71.503 35.421z" stroke="none" fill="#7F7F7F" fill-rule="evenodd" /><path transform="matrix(1 0 0 -1 0 540)" d="M71.503 55.614C 71.503 58.402 73.763 60.662 76.551 60.662C 76.551 60.662 76.551 60.662 76.551 60.662L76.551 60.662L76.551 60.662L76.551 60.662L201.02 60.662L201.02 60.662L201.02 60.662C 203.81 60.662 206.07 58.402 206.07 55.614C 206.07 55.614 206.07 55.614 206.07 55.614L206.07 55.614L206.07 55.614L206.07 55.614L206.07 35.421L206.07 35.421L206.07 35.421C 206.07 32.633 203.81 30.372 201.02 30.372C 201.02 30.372 201.02 30.372 201.02 30.372L201.02 30.372L201.02 30.372L201.02 30.372L76.551 30.372L76.551 30.372L76.551 30.372C 73.763 30.372 71.503 32.633 71.503 35.421C 71.503 35.421 71.503 35.421 71.503 35.421z" stroke="#FFFFFF" stroke-width="1" fill="none" /><path transform="matrix(1 0 0 -1 0 540)" d="M464.36 55.614C 464.36 58.402 466.62 60.662 469.41 60.662C 469.41 60.662 469.41 60.662 469.41 60.662L469.41 60.662L469.41 60.662L469.41 60.662L593.88 60.662L593.88 60.662L593.88 60.662C 596.66 60.662 598.92 58.402 598.92 55.614C 598.92 55.614 598.92 55.614 598.92 55.614L598.92 55.614L598.92 55.614L598.92 55.614L598.92 35.421L598.92 35.421L598.92 35.421C 598.92 32.633 596.66 30.372 593.88 30.372C 593.88 30.372 593.88 30.372 593.88 30.372L593.88 30.372L593.88 30.372L593.88 30.372L469.41 30.372L469.41 30.372L469.41 30.372C 466.62 30.372 464.36 32.633 464.36 35.421C 464.36 35.421 464.36 35.421 464.36 35.421z" stroke="none" fill="#7F7F7F" fill-rule="evenodd" /><path transform="matrix(1 0 0 -1 0 540)" d="M464.36 55.614C 464.36 58.402 466.62 60.662 469.41 60.662C 469.41 60.662 469.41 60.662 469.41 60.662L469.41 60.662L469.41 60.662L469.41 60.662L593.88 60.662L593.88 60.662L593.88 60.662C 596.66 60.662 598.92 58.402 598.92 55.614C 598.92 55.614 598.92 55.614 598.92 55.614L598.92 55.614L598.92 55.614L598.92 55.614L598.92 35.421L598.92 35.421L598.92 35.421C 598.92 32.633 596.66 30.372 593.88 30.372C 593.88 30.372 593.88 30.372 593.88 30.372L593.88 30.372L593.88 30.372L593.88 30.372L469.41 30.372L469.41 30.372L469.41 30.372C 466.62 30.372 464.36 32.633 464.36 35.421C 464.36 35.421 464.36 35.421 464.36 35.421z" stroke="#FFFFFF" stroke-width="1" fill="none" /><g clip-path="url(#5)"><g transform="matrix(0.2906111 0 0 0.2906113 305.83 95.41501)"><g transform="matrix(1 0 0 1 0 0)"><image x="0" y="0" xlink:href="img_53.png" width="1080" height="1456" /></g></g></g><g clip-path="url(#6)"><g transform="matrix(0.360095 0 0 0.360678 40.481 327.536)"><g transform="matrix(1 0 0 1 0 0)"><image x="0" y="0" xlink:href="img_54.png" width="737" height="531" /></g></g></g><path transform="matrix(1 0 0 -1 0 540)" d="M159.1 193.49C 159.1 196.28 161.36 198.54 164.15 198.54C 164.15 198.54 164.15 198.54 164.15 198.54L164.15 198.54L164.15 198.54L164.15 198.54L288.62 198.54L288.62 198.54L288.62 198.54C 291.4 198.54 293.66 196.28 293.66 193.49C 293.66 193.49 293.66 193.49 293.66 193.49L293.66 193.49L293.66 193.49L293.66 193.49L293.66 173.3L293.66 173.3L293.66 173.3C 293.66 170.51 291.4 168.25 288.62 168.25C 288.62 168.25 288.62 168.25 288.62 168.25L288.62 168.25L288.62 168.25L288.62 168.25L164.15 168.25L164.15 168.25L164.15 168.25C 161.36 168.25 159.1 170.51 159.1 173.3C 159.1 173.3 159.1 173.3 159.1 173.3z" stroke="none" fill="#7F7F7F" fill-rule="evenodd" /><path transform="matrix(1 0 0 -1 0 540)" d="M159.1 193.49C 159.1 196.28 161.36 198.54 164.15 198.54C 164.15 198.54 164.15 198.54 164.15 198.54L164.15 198.54L164.15 198.54L164.15 198.54L288.62 198.54L288.62 198.54L288.62 198.54C 291.4 198.54 293.66 196.28 293.66 193.49C 293.66 193.49 293.66 193.49 293.66 193.49L293.66 193.49L293.66 193.49L293.66 193.49L293.66 173.3L293.66 173.3L293.66 173.3C 293.66 170.51 291.4 168.25 288.62 168.25C 288.62 168.25 288.62 168.25 288.62 168.25L288.62 168.25L288.62 168.25L288.62 168.25L164.15 168.25L164.15 168.25L164.15 168.25C 161.36 168.25 159.1 170.51 159.1 173.3C 159.1 173.3 159.1 173.3 159.1 173.3z" stroke="#FFFFFF" stroke-width="1" fill="none" /><path transform="matrix(1 0 0 -1 0 540)" d="M159.1 425.79C 159.1 428.58 161.36 430.84 164.15 430.84C 164.15 430.84 164.15 430.84 164.15 430.84L164.15 430.84L164.15 430.84L164.15 430.84L288.62 430.84L288.62 430.84L288.62 430.84C 291.4 430.84 293.66 428.58 293.66 425.79C 293.66 425.79 293.66 425.79 293.66 425.79L293.66 425.79L293.66 425.79L293.66 425.79L293.66 405.6L293.66 405.6L293.66 405.6C 293.66 402.81 291.4 400.55 288.62 400.55C 288.62 400.55 288.62 400.55 288.62 400.55L288.62 400.55L288.62 400.55L288.62 400.55L164.15 400.55L164.15 400.55L164.15 400.55C 161.36 400.55 159.1 402.81 159.1 405.6C 159.1 405.6 159.1 405.6 159.1 405.6z" stroke="none" fill="#7F7F7F" fill-rule="evenodd" /><path transform="matrix(1 0 0 -1 0 540)" d="M159.1 425.79C 159.1 428.58 161.36 430.84 164.15 430.84C 164.15 430.84 164.15 430.84 164.15 430.84L164.15 430.84L164.15 430.84L164.15 430.84L288.62 430.84L288.62 430.84L288.62 430.84C 291.4 430.84 293.66 428.58 293.66 425.79C 293.66 425.79 293.66 425.79 293.66 425.79L293.66 425.79L293.66 425.79L293.66 425.79L293.66 405.6L293.66 405.6L293.66 405.6C 293.66 402.81 291.4 400.55 288.62 400.55C 288.62 400.55 288.62 400.55 288.62 400.55L288.62 400.55L288.62 400.55L288.62 400.55L164.15 400.55L164.15 400.55L164.15 400.55C 161.36 400.55 159.1 402.81 159.1 405.6C 159.1 405.6 159.1 405.6 159.1 405.6z" stroke="#FFFFFF" stroke-width="1" fill="none" /><path transform="matrix(1 0 0 -1 0 540)" d="M474.04 55.614C 474.04 58.402 476.3 60.662 479.09 60.662C 479.09 60.662 479.09 60.662 479.09 60.662L479.09 60.662L479.09 60.662L479.09 60.662L603.56 60.662L603.56 60.662L603.56 60.662C 606.35 60.662 608.61 58.402 608.61 55.614C 608.61 55.614 608.61 55.614 608.61 55.614L608.61 55.614L608.61 55.614L608.61 55.614L608.61 35.421L608.61 35.421L608.61 35.421C 608.61 32.633 606.35 30.372 603.56 30.372C 603.56 30.372 603.56 30.372 603.56 30.372L603.56 30.372L603.56 30.372L603.56 30.372L479.09 30.372L479.09 30.372L479.09 30.372C 476.3 30.372 474.04 32.633 474.04 35.421C 474.04 35.421 474.04 35.421 474.04 35.421z" stroke="none" fill="#7F7F7F" fill-rule="evenodd" /><path transform="matrix(1 0 0 -1 0 540)" d="M474.04 55.614C 474.04 58.402 476.3 60.662 479.09 60.662C 479.09 60.662 479.09 60.662 479.09 60.662L479.09 60.662L479.09 60.662L479.09 60.662L603.56 60.662L603.56 60.662L603.56 60.662C 606.35 60.662 608.61 58.402 608.61 55.614C 608.61 55.614 608.61 55.614 608.61 55.614L608.61 55.614L608.61 55.614L608.61 55.614L608.61 35.421L608.61 35.421L608.61 35.421C 608.61 32.633 606.35 30.372 603.56 30.372C 603.56 30.372 603.56 30.372 603.56 30.372L603.56 30.372L603.56 30.372L603.56 30.372L479.09 30.372L479.09 30.372L479.09 30.372C 476.3 30.372 474.04 32.633 474.04 35.421C 474.04 35.421 474.04 35.421 474.04 35.421z" stroke="#FFFFFF" stroke-width="1" fill="none" /><path transform="matrix(1 0 0 -1 0 540)" d="M630.54 55.614C 630.54 58.402 632.8 60.662 635.59 60.662C 635.59 60.662 635.59 60.662 635.59 60.662L635.59 60.662L635.59 60.662L635.59 60.662L760.05 60.662L760.05 60.662L760.05 60.662C 762.84 60.662 765.1 58.402 765.1 55.614C 765.1 55.614 765.1 55.614 765.1 55.614L765.1 55.614L765.1 55.614L765.1 55.614L765.1 35.421L765.1 35.421L765.1 35.421C 765.1 32.633 762.84 30.372 760.05 30.372C 760.05 30.372 760.05 30.372 760.05 30.372L760.05 30.372L760.05 30.372L760.05 30.372L635.59 30.372L635.59 30.372L635.59 30.372C 632.8 30.372 630.54 32.633 630.54 35.421C 630.54 35.421 630.54 35.421 630.54 35.421z" stroke="none" fill="#7F7F7F" fill-rule="evenodd" /><path transform="matrix(1 0 0 -1 0 540)" d="M630.54 55.614C 630.54 58.402 632.8 60.662 635.59 60.662C 635.59 60.662 635.59 60.662 635.59 60.662L635.59 60.662L635.59 60.662L635.59 60.662L760.05 60.662L760.05 60.662L760.05 60.662C 762.84 60.662 765.1 58.402 765.1 55.614C 765.1 55.614 765.1 55.614 765.1 55.614L765.1 55.614L765.1 55.614L765.1 55.614L765.1 35.421L765.1 35.421L765.1 35.421C 765.1 32.633 762.84 30.372 760.05 30.372C 760.05 30.372 760.05 30.372 760.05 30.372L760.05 30.372L760.05 30.372L760.05 30.372L635.59 30.372L635.59 30.372L635.59 30.372C 632.8 30.372 630.54 32.633 630.54 35.421C 630.54 35.421 630.54 35.421 630.54 35.421z" stroke="#FFFFFF" stroke-width="1" fill="none" /></g></g></g></svg>