<svg xmlns="http://www.w3.org/2000/svg" xmlns:xlink="http://www.w3.org/1999/xlink" id="body_20" preserveAspectRatio="xMinYMin meet" viewBox="0 0 1280 720"><defs><clipPath id="1"><path d="M0 540L0 0L0 0L960 0L960 0L960 540L960 540L0 540z" /></clipPath><clipPath id="2"><path d="M0 539.9999L960 539.9999L960 539.9999L960 -0.0001220703L960 -0.0001220703L0 -0.0001220703z" /></clipPath><clipPath id="3"><path d="M-7.1E-07 539.9998L960 539.9998L960 539.9998L960 -0.0002441406L960 -0.0002441406L-7.1E-07 -0.0002441406z" /></clipPath><clipPath id="4"><path d="M-2.92E-07 539.9998L960 539.9998L960 539.9998L960 -0.0002441406L960 -0.0002441406L-2.92E-07 -0.0002441406z" /></clipPath><clipPath id="5"><path d="M5.688E-06 539.9998L960 539.9998L960 539.9998L960 -0.0001831055L960 -0.0001831055L5.688E-06 -0.0001831055z" /></clipPath><clipPath id="6"><path d="M-2.2E-07 539.9998L960 539.9998L960 539.9998L960 -0.0002441406L960 -0.0002441406L-2.2E-07 -0.0002441406z" /></clipPath><clipPath id="7"><path d="M7.552E-06 539.9998L960 539.9998L960 539.9998L960 -0.0002441406L960 -0.0002441406L7.552E-06 -0.0002441406z" /></clipPath></defs><g transform="matrix(1.333333 0 0 1.333333 0 0)"><g><g clip-path="url(#1)"><g clip-path="url(#2)"><path transform="matrix(1 0 0 -1 0 540)" d="M0 6.104E-06L960 6.104E-06L960 6.104E-06L960 540L960 540L0 540z" stroke="none" fill="#E1EAE7" fill-rule="evenodd" /></g><path transform="matrix(1 0 0 -1 0 540)" d="M0 519.6L188.4 519.6L188.4 519.6L176.2 468L176.2 468L0 468L0 468L0 519.6z" stroke="none" fill="#27A98C" fill-rule="evenodd" fill-opacity="0.5568628" /><path transform="matrix(1 0 0 -1 0 540)" d="M0 524.4L188.4 524.4L188.4 524.4L157.2 468L157.2 468L0 468L0 468L0 524.4z" stroke="none" fill="#27A98C" fill-rule="evenodd" /><g clip-path="url(#3)"><g transform="matrix(0.4556167 0 0 0.4557347 316.76 95.81799)"><g transform="matrix(1 0 0 1 0 0)"><image x="0" y="0" xlink:href="img_45.png" width="1200" height="912" /></g></g></g><g clip-path="url(#4)"><g transform="matrix(0.4255099 0 0 0.4255317 39.724 95.27798)"><g transform="matrix(1 0 0 1 0 0)"><image x="0" y="0" xlink:href="img_46.png" width="657" height="978" /></g></g></g><path transform="matrix(1 0 0 -1 0 540)" d="M115.7 81.434C 115.7 84.223 117.96 86.483 120.74 86.483C 120.74 86.483 120.74 86.483 120.74 86.483L120.74 86.483L120.74 86.483L120.74 86.483L245.21 86.483L245.21 86.483L245.21 86.483C 248 86.483 250.26 84.223 250.26 81.434C 250.26 81.434 250.26 81.434 250.26 81.434L250.26 81.434L250.26 81.434L250.26 81.434L250.26 61.241L250.26 61.241L250.26 61.241C 250.26 58.453 248 56.193 245.21 56.193C 245.21 56.193 245.21 56.193 245.21 56.193L245.21 56.193L245.21 56.193L245.21 56.193L120.74 56.193L120.74 56.193L120.74 56.193C 117.96 56.193 115.7 58.453 115.7 61.241C 115.7 61.241 115.7 61.241 115.7 61.241z" stroke="none" fill="#7F7F7F" fill-rule="evenodd" /><path transform="matrix(1 0 0 -1 0 540)" d="M115.7 81.434C 115.7 84.223 117.96 86.483 120.74 86.483C 120.74 86.483 120.74 86.483 120.74 86.483L120.74 86.483L120.74 86.483L120.74 86.483L245.21 86.483L245.21 86.483L245.21 86.483C 248 86.483 250.26 84.223 250.26 81.434C 250.26 81.434 250.26 81.434 250.26 81.434L250.26 81.434L250.26 81.434L250.26 81.434L250.26 61.241L250.26 61.241L250.26 61.241C 250.26 58.453 248 56.193 245.21 56.193C 245.21 56.193 245.21 56.193 245.21 56.193L245.21 56.193L245.21 56.193L245.21 56.193L120.74 56.193L120.74 56.193L120.74 56.193C 117.96 56.193 115.7 58.453 115.7 61.241C 115.7 61.241 115.7 61.241 115.7 61.241z" stroke="#FFFFFF" stroke-width="1" fill="none" /><g clip-path="url(#5)"><g transform="matrix(0.3290361 0 0 0.3345455 725.16 94.41998)"><g transform="matrix(1 0 0 1 0 0)"><image x="0" y="0" xlink:href="img_47.png" width="581" height="451" /></g></g></g><g clip-path="url(#6)"><g transform="matrix(0.3071429 0 0 0.3152876 725.95 245.3)"><g transform="matrix(1 0 0 1 0 0)"><image x="0" y="0" xlink:href="img_48.png" width="623" height="452" /></g></g></g><path transform="matrix(1 0 0 -1 0 540)" d="M463.86 79.945C 463.86 82.733 466.12 84.993 468.91 84.993C 468.91 84.993 468.91 84.993 468.91 84.993L468.91 84.993L468.91 84.993L468.91 84.993L593.38 84.993L593.38 84.993L593.38 84.993C 596.17 84.993 598.43 82.733 598.43 79.945C 598.43 79.945 598.43 79.945 598.43 79.945L598.43 79.945L598.43 79.945L598.43 79.945L598.43 59.752L598.43 59.752L598.43 59.752C 598.43 56.964 596.17 54.703 593.38 54.703C 593.38 54.703 593.38 54.703 593.38 54.703L593.38 54.703L593.38 54.703L593.38 54.703L468.91 54.703L468.91 54.703L468.91 54.703C 466.12 54.703 463.86 56.964 463.86 59.752C 463.86 59.752 463.86 59.752 463.86 59.752z" stroke="none" fill="#7F7F7F" fill-rule="evenodd" /><path transform="matrix(1 0 0 -1 0 540)" d="M463.86 79.945C 463.86 82.733 466.12 84.993 468.91 84.993C 468.91 84.993 468.91 84.993 468.91 84.993L468.91 84.993L468.91 84.993L468.91 84.993L593.38 84.993L593.38 84.993L593.38 84.993C 596.17 84.993 598.43 82.733 598.43 79.945C 598.43 79.945 598.43 79.945 598.43 79.945L598.43 79.945L598.43 79.945L598.43 79.945L598.43 59.752L598.43 59.752L598.43 59.752C 598.43 56.964 596.17 54.703 593.38 54.703C 593.38 54.703 593.38 54.703 593.38 54.703L593.38 54.703L593.38 54.703L593.38 54.703L468.91 54.703L468.91 54.703L468.91 54.703C 466.12 54.703 463.86 56.964 463.86 59.752C 463.86 59.752 463.86 59.752 463.86 59.752z" stroke="#FFFFFF" stroke-width="1" fill="none" /><path transform="matrix(1 0 0 -1 0 540)" d="M754.34 327.14C 754.34 329.93 756.6 332.19 759.39 332.19C 759.39 332.19 759.39 332.19 759.39 332.19L759.39 332.19L759.39 332.19L759.39 332.19L883.86 332.19L883.86 332.19L883.86 332.19C 886.65 332.19 888.91 329.93 888.91 327.14C 888.91 327.14 888.91 327.14 888.91 327.14L888.91 327.14L888.91 327.14L888.91 327.14L888.91 306.95L888.91 306.95L888.91 306.95C 888.91 304.16 886.65 301.9 883.86 301.9C 883.86 301.9 883.86 301.9 883.86 301.9L883.86 301.9L883.86 301.9L883.86 301.9L759.39 301.9L759.39 301.9L759.39 301.9C 756.6 301.9 754.34 304.16 754.34 306.95C 754.34 306.95 754.34 306.95 754.34 306.95z" stroke="none" fill="#7F7F7F" fill-rule="evenodd" /><path transform="matrix(1 0 0 -1 0 540)" d="M754.34 327.14C 754.34 329.93 756.6 332.19 759.39 332.19C 759.39 332.19 759.39 332.19 759.39 332.19L759.39 332.19L759.39 332.19L759.39 332.19L883.86 332.19L883.86 332.19L883.86 332.19C 886.65 332.19 888.91 329.93 888.91 327.14C 888.91 327.14 888.91 327.14 888.91 327.14L888.91 327.14L888.91 327.14L888.91 327.14L888.91 306.95L888.91 306.95L888.91 306.95C 888.91 304.16 886.65 301.9 883.86 301.9C 883.86 301.9 883.86 301.9 883.86 301.9L883.86 301.9L883.86 301.9L883.86 301.9L759.39 301.9L759.39 301.9L759.39 301.9C 756.6 301.9 754.34 304.16 754.34 306.95C 754.34 306.95 754.34 306.95 754.34 306.95z" stroke="#FFFFFF" stroke-width="1" fill="none" /><path transform="matrix(1 0 0 -1 0 540)" d="M754.34 187.53C 754.34 190.32 756.6 192.58 759.39 192.58C 759.39 192.58 759.39 192.58 759.39 192.58L759.39 192.58L759.39 192.58L759.39 192.58L883.86 192.58L883.86 192.58L883.86 192.58C 886.65 192.58 888.91 190.32 888.91 187.53C 888.91 187.53 888.91 187.53 888.91 187.53L888.91 187.53L888.91 187.53L888.91 187.53L888.91 167.34L888.91 167.34L888.91 167.34C 888.91 164.55 886.65 162.29 883.86 162.29C 883.86 162.29 883.86 162.29 883.86 162.29L883.86 162.29L883.86 162.29L883.86 162.29L759.39 162.29L759.39 162.29L759.39 162.29C 756.6 162.29 754.34 164.55 754.34 167.34C 754.34 167.34 754.34 167.34 754.34 167.34z" stroke="none" fill="#7F7F7F" fill-rule="evenodd" /><path transform="matrix(1 0 0 -1 0 540)" d="M754.34 187.53C 754.34 190.32 756.6 192.58 759.39 192.58C 759.39 192.58 759.39 192.58 759.39 192.58L759.39 192.58L759.39 192.58L759.39 192.58L883.86 192.58L883.86 192.58L883.86 192.58C 886.65 192.58 888.91 190.32 888.91 187.53C 888.91 187.53 888.91 187.53 888.91 187.53L888.91 187.53L888.91 187.53L888.91 187.53L888.91 167.34L888.91 167.34L888.91 167.34C 888.91 164.55 886.65 162.29 883.86 162.29C 883.86 162.29 883.86 162.29 883.86 162.29L883.86 162.29L883.86 162.29L883.86 162.29L759.39 162.29L759.39 162.29L759.39 162.29C 756.6 162.29 754.34 164.55 754.34 167.34C 754.34 167.34 754.34 167.34 754.34 167.34z" stroke="#FFFFFF" stroke-width="1" fill="none" /><g clip-path="url(#7)"><g transform="matrix(0.3272572 0 0 0.3272966 725.57 386.252)"><g transform="matrix(1 0 0 1 0 0)"><image x="0" y="0" xlink:href="img_49.png" width="587" height="381" /></g></g></g><path transform="matrix(1 0 0 -1 0 540)" d="M754.34 60.331C 754.34 63.119 756.6 65.379 759.39 65.379C 759.39 65.379 759.39 65.379 759.39 65.379L759.39 65.379L759.39 65.379L759.39 65.379L883.86 65.379L883.86 65.379L883.86 65.379C 886.65 65.379 888.91 63.119 888.91 60.331C 888.91 60.331 888.91 60.331 888.91 60.331L888.91 60.331L888.91 60.331L888.91 60.331L888.91 40.138L888.91 40.138L888.91 40.138C 888.91 37.35 886.65 35.09 883.86 35.09C 883.86 35.09 883.86 35.09 883.86 35.09L883.86 35.09L883.86 35.09L883.86 35.09L759.39 35.09L759.39 35.09L759.39 35.09C 756.6 35.09 754.34 37.35 754.34 40.138C 754.34 40.138 754.34 40.138 754.34 40.138z" stroke="none" fill="#7F7F7F" fill-rule="evenodd" /><path transform="matrix(1 0 0 -1 0 540)" d="M754.34 60.331C 754.34 63.119 756.6 65.379 759.39 65.379C 759.39 65.379 759.39 65.379 759.39 65.379L759.39 65.379L759.39 65.379L759.39 65.379L883.86 65.379L883.86 65.379L883.86 65.379C 886.65 65.379 888.91 63.119 888.91 60.331C 888.91 60.331 888.91 60.331 888.91 60.331L888.91 60.331L888.91 60.331L888.91 60.331L888.91 40.138L888.91 40.138L888.91 40.138C 888.91 37.35 886.65 35.09 883.86 35.09C 883.86 35.09 883.86 35.09 883.86 35.09L883.86 35.09L883.86 35.09L883.86 35.09L759.39 35.09L759.39 35.09L759.39 35.09C 756.6 35.09 754.34 37.35 754.34 40.138C 754.34 40.138 754.34 40.138 754.34 40.138z" stroke="#FFFFFF" stroke-width="1" fill="none" /></g></g></g></svg>