<svg xmlns="http://www.w3.org/2000/svg" xmlns:xlink="http://www.w3.org/1999/xlink" id="body_19" preserveAspectRatio="xMinYMin meet" viewBox="0 0 1280 720"><defs><clipPath id="1"><path d="M0 540L0 0L0 0L960 0L960 0L960 540L960 540L0 540z" /></clipPath><clipPath id="2"><path d="M0 539.9999L960 539.9999L960 539.9999L960 -0.0001220703L960 -0.0001220703L0 -0.0001220703z" /></clipPath><clipPath id="3"><path d="M-3.293E-06 539.9998L960 539.9998L960 539.9998L960 -0.0001831055L960 -0.0001831055L-3.293E-06 -0.0001831055z" /></clipPath><clipPath id="4"><path d="M-1.668E-06 0L960 0L960 0L960 540L960 540L-6.003E-06 540" /></clipPath><clipPath id="5"><path d="M-2.98E-07 539.9998L960 539.9998L960 539.9998L960 -0.0001831055L960 -0.0001831055L-2.98E-07 -0.0001831055z" /></clipPath><clipPath id="6"><path d="M2.315E-06 539.9998L960 539.9998L960 539.9998L960 -0.0002441406L960 -0.0002441406L2.315E-06 -0.0002441406z" /></clipPath></defs><g transform="matrix(1.333333 0 0 1.333333 0 0)"><g><g clip-path="url(#1)"><g clip-path="url(#2)"><path transform="matrix(1 0 0 -1 0 540)" d="M0 6.104E-06L960 6.104E-06L960 6.104E-06L960 540L960 540L0 540z" stroke="none" fill="#E1EAE7" fill-rule="evenodd" /></g><g clip-path="url(#3)"><g transform="matrix(0.3600861 0 0 0.3600174 362.75 305.001)"><g transform="matrix(1 0 0 1 0 0)"><image x="0" y="0" xlink:href="img_40.png" width="813" height="576" /></g></g></g><path transform="matrix(1 0 0 -1 0 540)" d="M0 519.6L188.4 519.6L188.4 519.6L176.2 468L176.2 468L0 468L0 468L0 519.6z" stroke="none" fill="#27A98C" fill-rule="evenodd" fill-opacity="0.5568628" /><path transform="matrix(1 0 0 -1 0 540)" d="M0 524.4L188.4 524.4L188.4 524.4L157.2 468L157.2 468L0 468L0 468L0 524.4z" stroke="none" fill="#27A98C" fill-rule="evenodd" /><g clip-path="url(#4)"><g transform="matrix(0 -0.3549106 0.3550488 -3.721951E-09 364.51 313.99)"><g transform="matrix(1 0 0 1 0 0)"><image x="0" y="0" xlink:href="img_41.png" width="615" height="820" /></g></g></g><g clip-path="url(#5)"><g transform="matrix(0.3602771 0 0 0.36 53 96.00198)"><g transform="matrix(1 0 0 1 0 0)"><image x="0" y="0" xlink:href="img_42.png" width="866" height="1156" /></g></g></g><g clip-path="url(#6)"><g transform="matrix(0.3072985 0 0 0.3072935 641.23 95.996)"><g transform="matrix(1 0 0 1 0 0)"><image x="0" y="0" xlink:href="img_43.png" width="881" height="1356" /></g></g></g><path transform="matrix(1 0 0 -1 0 540)" d="M160.88 81.103C 160.88 83.892 163.14 86.152 165.93 86.152C 165.93 86.152 165.93 86.152 165.93 86.152L165.93 86.152L165.93 86.152L165.93 86.152L268.55 86.152L268.55 86.152L268.55 86.152C 271.34 86.152 273.6 83.892 273.6 81.103C 273.6 81.103 273.6 81.103 273.6 81.103L273.6 81.103L273.6 81.103L273.6 81.103L273.6 60.91L273.6 60.91L273.6 60.91C 273.6 58.122 271.34 55.862 268.55 55.862C 268.55 55.862 268.55 55.862 268.55 55.862L268.55 55.862L268.55 55.862L268.55 55.862L165.93 55.862L165.93 55.862L165.93 55.862C 163.14 55.862 160.88 58.122 160.88 60.91C 160.88 60.91 160.88 60.91 160.88 60.91z" stroke="none" fill="#7F7F7F" fill-rule="evenodd" /><path transform="matrix(1 0 0 -1 0 540)" d="M160.88 81.103C 160.88 83.892 163.14 86.152 165.93 86.152C 165.93 86.152 165.93 86.152 165.93 86.152L165.93 86.152L165.93 86.152L165.93 86.152L268.55 86.152L268.55 86.152L268.55 86.152C 271.34 86.152 273.6 83.892 273.6 81.103C 273.6 81.103 273.6 81.103 273.6 81.103L273.6 81.103L273.6 81.103L273.6 81.103L273.6 60.91L273.6 60.91L273.6 60.91C 273.6 58.122 271.34 55.862 268.55 55.862C 268.55 55.862 268.55 55.862 268.55 55.862L268.55 55.862L268.55 55.862L268.55 55.862L165.93 55.862L165.93 55.862L165.93 55.862C 163.14 55.862 160.88 58.122 160.88 60.91C 160.88 60.91 160.88 60.91 160.88 60.91z" stroke="#FFFFFF" stroke-width="1" fill="none" /><path transform="matrix(1 0 0 -1 0 540)" d="M442.01 277.16C 442.01 279.95 444.27 282.21 447.06 282.21C 447.06 282.21 447.06 282.21 447.06 282.21L447.06 282.21L447.06 282.21L447.06 282.21L560.03 282.21L560.03 282.21L560.03 282.21C 562.82 282.21 565.08 279.95 565.08 277.16C 565.08 277.16 565.08 277.16 565.08 277.16L565.08 277.16L565.08 277.16L565.08 277.16L565.08 256.97L565.08 256.97L565.08 256.97C 565.08 254.18 562.82 251.92 560.03 251.92C 560.03 251.92 560.03 251.92 560.03 251.92L560.03 251.92L560.03 251.92L560.03 251.92L447.06 251.92L447.06 251.92L447.06 251.92C 444.27 251.92 442.01 254.18 442.01 256.97C 442.01 256.97 442.01 256.97 442.01 256.97z" stroke="none" fill="#7F7F7F" fill-rule="evenodd" /><path transform="matrix(1 0 0 -1 0 540)" d="M442.01 277.16C 442.01 279.95 444.27 282.21 447.06 282.21C 447.06 282.21 447.06 282.21 447.06 282.21L447.06 282.21L447.06 282.21L447.06 282.21L560.03 282.21L560.03 282.21L560.03 282.21C 562.82 282.21 565.08 279.95 565.08 277.16C 565.08 277.16 565.08 277.16 565.08 277.16L565.08 277.16L565.08 277.16L565.08 277.16L565.08 256.97L565.08 256.97L565.08 256.97C 565.08 254.18 562.82 251.92 560.03 251.92C 560.03 251.92 560.03 251.92 560.03 251.92L560.03 251.92L560.03 251.92L560.03 251.92L447.06 251.92L447.06 251.92L447.06 251.92C 444.27 251.92 442.01 254.18 442.01 256.97C 442.01 256.97 442.01 256.97 442.01 256.97z" stroke="#FFFFFF" stroke-width="1" fill="none" /><path transform="matrix(1 0 0 -1 0 540)" d="M438.12 81.103C 438.12 83.892 440.38 86.152 443.17 86.152C 443.17 86.152 443.17 86.152 443.17 86.152L443.17 86.152L443.17 86.152L443.17 86.152L556.14 86.152L556.14 86.152L556.14 86.152C 558.93 86.152 561.19 83.892 561.19 81.103C 561.19 81.103 561.19 81.103 561.19 81.103L561.19 81.103L561.19 81.103L561.19 81.103L561.19 60.91L561.19 60.91L561.19 60.91C 561.19 58.122 558.93 55.862 556.14 55.862C 556.14 55.862 556.14 55.862 556.14 55.862L556.14 55.862L556.14 55.862L556.14 55.862L443.17 55.862L443.17 55.862L443.17 55.862C 440.38 55.862 438.12 58.122 438.12 60.91C 438.12 60.91 438.12 60.91 438.12 60.91z" stroke="none" fill="#7F7F7F" fill-rule="evenodd" /><path transform="matrix(1 0 0 -1 0 540)" d="M438.12 81.103C 438.12 83.892 440.38 86.152 443.17 86.152C 443.17 86.152 443.17 86.152 443.17 86.152L443.17 86.152L443.17 86.152L443.17 86.152L556.14 86.152L556.14 86.152L556.14 86.152C 558.93 86.152 561.19 83.892 561.19 81.103C 561.19 81.103 561.19 81.103 561.19 81.103L561.19 81.103L561.19 81.103L561.19 81.103L561.19 60.91L561.19 60.91L561.19 60.91C 561.19 58.122 558.93 55.862 556.14 55.862C 556.14 55.862 556.14 55.862 556.14 55.862L556.14 55.862L556.14 55.862L556.14 55.862L443.17 55.862L443.17 55.862L443.17 55.862C 440.38 55.862 438.12 58.122 438.12 60.91C 438.12 60.91 438.12 60.91 438.12 60.91z" stroke="#FFFFFF" stroke-width="1" fill="none" /><path transform="matrix(1 0 0 -1 0 540)" d="M733.66 81.103C 733.66 83.892 735.92 86.152 738.7 86.152C 738.7 86.152 738.7 86.152 738.7 86.152L738.7 86.152L738.7 86.152L738.7 86.152L851.67 86.152L851.67 86.152L851.67 86.152C 854.46 86.152 856.72 83.892 856.72 81.103C 856.72 81.103 856.72 81.103 856.72 81.103L856.72 81.103L856.72 81.103L856.72 81.103L856.72 60.91L856.72 60.91L856.72 60.91C 856.72 58.122 854.46 55.862 851.67 55.862C 851.67 55.862 851.67 55.862 851.67 55.862L851.67 55.862L851.67 55.862L851.67 55.862L738.7 55.862L738.7 55.862L738.7 55.862C 735.92 55.862 733.66 58.122 733.66 60.91C 733.66 60.91 733.66 60.91 733.66 60.91z" stroke="none" fill="#7F7F7F" fill-rule="evenodd" /><path transform="matrix(1 0 0 -1 0 540)" d="M733.66 81.103C 733.66 83.892 735.92 86.152 738.7 86.152C 738.7 86.152 738.7 86.152 738.7 86.152L738.7 86.152L738.7 86.152L738.7 86.152L851.67 86.152L851.67 86.152L851.67 86.152C 854.46 86.152 856.72 83.892 856.72 81.103C 856.72 81.103 856.72 81.103 856.72 81.103L856.72 81.103L856.72 81.103L856.72 81.103L856.72 60.91L856.72 60.91L856.72 60.91C 856.72 58.122 854.46 55.862 851.67 55.862C 851.67 55.862 851.67 55.862 851.67 55.862L851.67 55.862L851.67 55.862L851.67 55.862L738.7 55.862L738.7 55.862L738.7 55.862C 735.92 55.862 733.66 58.122 733.66 60.91C 733.66 60.91 733.66 60.91 733.66 60.91z" stroke="#FFFFFF" stroke-width="1" fill="none" /></g></g></g></svg>