<svg xmlns="http://www.w3.org/2000/svg" xmlns:xlink="http://www.w3.org/1999/xlink" id="body_16" preserveAspectRatio="xMinYMin meet" viewBox="0 0 1280 720"><defs><clipPath id="1"><path d="M0 540L0 0L0 0L960 0L960 0L960 540L960 540L0 540z" /></clipPath><clipPath id="2"><path d="M0 539.9999L960 539.9999L960 539.9999L960 -0.0001220703L960 -0.0001220703L0 -0.0001220703z" /></clipPath><clipPath id="3"><path d="M52.08 214.68L201 214.68L201 214.68L201 157.08L201 157.08L52.08 157.08z" /></clipPath><clipPath id="4"><path d="M201 214.68L258.96 214.68L258.96 214.68L258.96 157.08L258.96 157.08L201 157.08z" /></clipPath><clipPath id="5"><path d="M259.08 214.68L342 214.68L342 214.68L342 157.08L342 157.08L259.08 157.08z" /></clipPath><clipPath id="6"><path d="M342 214.68L459.96 214.68L459.96 214.68L459.96 157.08L459.96 157.08L342 157.08z" /></clipPath><clipPath id="7"><path d="M51.96 320.16L200.88 320.16L200.88 320.16L200.88 159.6L200.88 159.6L51.96 159.6z" /></clipPath><clipPath id="8"><path d="M51.96 320.16L200.88 320.16L200.88 320.16L200.88 159.6L200.88 159.6L51.96 159.6z" /></clipPath><clipPath id="9"><path d="M201 264.96L258.96 264.96L258.96 264.96L258.96 214.8L258.96 214.8L201 214.8z" /></clipPath><clipPath id="10"><path d="M201 264.96L258.96 264.96L258.96 264.96L258.96 214.8L258.96 214.8L201 214.8z" /></clipPath><clipPath id="11"><path d="M259.08 270.12L342 270.12L342 270.12L342 209.52L342 209.52L259.08 209.52z" /></clipPath><clipPath id="12"><path d="M259.08 270.12L342 270.12L342 270.12L342 209.52L342 209.52L259.08 209.52z" /></clipPath><clipPath id="13"><path d="M51.96 394.92L200.88 394.92L200.88 394.92L200.88 229.68L200.88 229.68L51.96 229.68z" /></clipPath><clipPath id="14"><path d="M51.96 394.92L200.88 394.92L200.88 394.92L200.88 229.68L200.88 229.68L51.96 229.68z" /></clipPath><clipPath id="15"><path d="M51.96 394.92L200.88 394.92L200.88 394.92L200.88 229.68L200.88 229.68L51.96 229.68z" /></clipPath><clipPath id="16"><path d="M51.96 394.92L200.88 394.92L200.88 394.92L200.88 229.68L200.88 229.68L51.96 229.68z" /></clipPath><clipPath id="17"><path d="M51.96 394.92L200.88 394.92L200.88 394.92L200.88 229.68L200.88 229.68L51.96 229.68z" /></clipPath><clipPath id="18"><path d="M51.96 394.92L200.88 394.92L200.88 394.92L200.88 229.68L200.88 229.68L51.96 229.68z" /></clipPath><clipPath id="19"><path d="M201 337.32L258.96 337.32L258.96 337.32L258.96 287.28L258.96 287.28L201 287.28z" /></clipPath><clipPath id="20"><path d="M201 337.32L258.96 337.32L258.96 337.32L258.96 287.28L258.96 287.28L201 287.28z" /></clipPath><clipPath id="21"><path d="M259.08 342.6L342 342.6L342 342.6L342 282L342 282L259.08 282z" /></clipPath><clipPath id="22"><path d="M259.08 342.6L342 342.6L342 342.6L342 282L342 282L259.08 282z" /></clipPath><clipPath id="23"><path d="M51.96 457.2L200.88 457.2L200.88 457.2L200.88 311.4L200.88 311.4L51.96 311.4z" /></clipPath><clipPath id="24"><path d="M51.96 457.2L200.88 457.2L200.88 457.2L200.88 311.4L200.88 311.4L51.96 311.4z" /></clipPath><clipPath id="25"><path d="M201 409.32L258.96 409.32L258.96 409.32L258.96 359.28L258.96 359.28L201 359.28z" /></clipPath><clipPath id="26"><path d="M201 409.32L258.96 409.32L258.96 409.32L258.96 359.28L258.96 359.28L201 359.28z" /></clipPath><clipPath id="27"><path d="M259.08 409.32L342 409.32L342 409.32L342 359.28L342 359.28L259.08 359.28z" /></clipPath><clipPath id="28"><path d="M259.08 409.32L342 409.32L342 409.32L342 359.28L342 359.28L259.08 359.28z" /></clipPath><clipPath id="29"><path d="M51.96 523.32L200.88 523.32L200.88 523.32L200.88 392.04L200.88 392.04L51.96 392.04z" /></clipPath><clipPath id="30"><path d="M51.96 523.32L200.88 523.32L200.88 523.32L200.88 392.04L200.88 392.04L51.96 392.04z" /></clipPath><clipPath id="31"><path d="M201 482.76L258.96 482.76L258.96 482.76L258.96 432.6L258.96 432.6L201 432.6z" /></clipPath><clipPath id="32"><path d="M201 482.76L258.96 482.76L258.96 482.76L258.96 432.6L258.96 432.6L201 432.6z" /></clipPath><clipPath id="33"><path d="M259.08 490.2L342 490.2L342 490.2L342 425.16L342 425.16L259.08 425.16z" /></clipPath><clipPath id="34"><path d="M259.08 490.2L342 490.2L342 490.2L342 425.16L342 425.16L259.08 425.16z" /></clipPath><clipPath id="35"><path d="M-1.555E-06 539.9998L960 539.9998L960 539.9998L960 -0.0001831055L960 -0.0001831055L-1.555E-06 -0.0001831055z" /></clipPath><clipPath id="36"><path d="M495 215.88L640.92 215.88L640.92 215.88L640.92 158.28L640.92 158.28L495 158.28z" /></clipPath><clipPath id="37"><path d="M641.04 215.88L702 215.88L702 215.88L702 158.28L702 158.28L641.04 158.28z" /></clipPath><clipPath id="38"><path d="M702 215.88L784.92 215.88L784.92 215.88L784.92 158.28L784.92 158.28L702 158.28z" /></clipPath><clipPath id="39"><path d="M785.04 215.88L903 215.88L903 215.88L903 158.28L903 158.28L785.04 158.28z" /></clipPath><clipPath id="40"><path d="M495 279.96L640.92 279.96L640.92 279.96L640.92 186.36L640.92 186.36L495 186.36z" /></clipPath><clipPath id="41"><path d="M641.04 258.24L702 258.24L702 258.24L702 208.2L702 208.2L641.04 208.2z" /></clipPath><clipPath id="42"><path d="M641.04 258.24L702 258.24L702 258.24L702 208.2L702 208.2L641.04 208.2z" /></clipPath><clipPath id="43"><path d="M702 265.68L784.92 265.68L784.92 265.68L784.92 200.76L784.92 200.76L702 200.76z" /></clipPath><clipPath id="44"><path d="M702 265.68L784.92 265.68L784.92 265.68L784.92 200.76L784.92 200.76L702 200.76z" /></clipPath><clipPath id="45"><path d="M495 346.92L640.92 346.92L640.92 346.92L640.92 235.32L640.92 235.32L495 235.32z" /></clipPath><clipPath id="46"><path d="M641.04 323.64L702 323.64L702 323.64L702 258.72L702 258.72L641.04 258.72z" /></clipPath><clipPath id="47"><path d="M641.04 323.64L702 323.64L702 323.64L702 258.72L702 258.72L641.04 258.72z" /></clipPath><clipPath id="48"><path d="M702 323.64L784.92 323.64L784.92 323.64L784.92 258.72L784.92 258.72L702 258.72z" /></clipPath><clipPath id="49"><path d="M702 323.64L784.92 323.64L784.92 323.64L784.92 258.72L784.92 258.72L702 258.72z" /></clipPath><clipPath id="50"><path d="M495 411.96L640.92 411.96L640.92 411.96L640.92 285.84L640.92 285.84L495 285.84z" /></clipPath><clipPath id="51"><path d="M495 411.96L640.92 411.96L640.92 411.96L640.92 285.84L640.92 285.84L495 285.84z" /></clipPath><clipPath id="52"><path d="M641.04 373.92L702 373.92L702 373.92L702 323.88L702 323.88L641.04 323.88z" /></clipPath><clipPath id="53"><path d="M641.04 373.92L702 373.92L702 373.92L702 323.88L702 323.88L641.04 323.88z" /></clipPath><clipPath id="54"><path d="M702 381.36L784.92 381.36L784.92 381.36L784.92 316.44L784.92 316.44L702 316.44z" /></clipPath><clipPath id="55"><path d="M702 381.36L784.92 381.36L784.92 381.36L784.92 316.44L784.92 316.44L702 316.44z" /></clipPath><clipPath id="56"><path d="M495 471.36L640.92 471.36L640.92 471.36L640.92 343.2L640.92 343.2L495 343.2z" /></clipPath><clipPath id="57"><path d="M495 471.36L640.92 471.36L640.92 471.36L640.92 343.2L640.92 343.2L495 343.2z" /></clipPath><clipPath id="58"><path d="M641.04 432.36L702 432.36L702 432.36L702 382.2L702 382.2L641.04 382.2z" /></clipPath><clipPath id="59"><path d="M641.04 432.36L702 432.36L702 432.36L702 382.2L702 382.2L641.04 382.2z" /></clipPath><clipPath id="60"><path d="M702 432.36L784.92 432.36L784.92 432.36L784.92 382.2L784.92 382.2L702 382.2z" /></clipPath><clipPath id="61"><path d="M702 432.36L784.92 432.36L784.92 432.36L784.92 382.2L784.92 382.2L702 382.2z" /></clipPath><clipPath id="62"><path d="M495 512.4L640.92 512.4L640.92 512.4L640.92 418.8L640.92 418.8L495 418.8z" /></clipPath><clipPath id="63"><path d="M641.04 490.68L702 490.68L702 490.68L702 440.64L702 440.64L641.04 440.64z" /></clipPath><clipPath id="64"><path d="M641.04 490.68L702 490.68L702 490.68L702 440.64L702 440.64L641.04 440.64z" /></clipPath><clipPath id="65"><path d="M702 490.68L784.92 490.68L784.92 490.68L784.92 440.64L784.92 440.64L702 440.64z" /></clipPath><clipPath id="66"><path d="M702 490.68L784.92 490.68L784.92 490.68L784.92 440.64L784.92 440.64L702 440.64z" /></clipPath><clipPath id="67"><path d="M-7.893E-06 539.9998L960 539.9998L960 539.9998L960 -0.0001831055L960 -0.0001831055L-7.893E-06 -0.0001831055z" /></clipPath><clipPath id="68"><path d="M2.726E-06 539.9998L960 539.9998L960 539.9998L960 -0.0002441406L960 -0.0002441406L2.726E-06 -0.0002441406z" /></clipPath><clipPath id="69"><path d="M-0.00010546 539.9998L959.9999 539.9998L959.9999 539.9998L959.9999 -0.0001831055L959.9999 -0.0001831055L-0.00010546 -0.0001831055z" /></clipPath><clipPath id="70"><path d="M-1.07E-07 539.9998L960 539.9998L960 539.9998L960 -0.0002441406L960 -0.0002441406L-1.07E-07 -0.0002441406z" /></clipPath><clipPath id="71"><path d="M1.729E-06 539.9998L960 539.9998L960 539.9998L960 -0.0001831055L960 -0.0001831055L1.729E-06 -0.0001831055z" /></clipPath><clipPath id="72"><path d="M-4.47E-07 539.9998L960 539.9998L960 539.9998L960 -0.0001831055L960 -0.0001831055L-4.47E-07 -0.0001831055z" /></clipPath><clipPath id="73"><path d="M-4.91E-07 539.9998L960 539.9998L960 539.9998L960 -0.0001831055L960 -0.0001831055L-4.91E-07 -0.0001831055z" /></clipPath><clipPath id="74"><path d="M5.933E-06 0L960 0L960 0L960 539.9999L960 539.9999L-9.47E-07 539.9999" /></clipPath></defs><g transform="matrix(1.333333 0 0 1.333333 0 0)"><g><g clip-path="url(#1)"><g clip-path="url(#2)"><path transform="matrix(1 0 0 -1 0 540)" d="M0 6.104E-06L960 6.104E-06L960 6.104E-06L960 540L960 540L0 540z" stroke="none" fill="#E1EAE7" fill-rule="evenodd" /></g><path transform="matrix(1 0 0 -1 0 540)" d="M0 519.6L188.4 519.6L188.4 519.6L176.2 468L176.2 468L0 468L0 468L0 519.6z" stroke="none" fill="#27A98C" fill-rule="evenodd" fill-opacity="0.5568628" /><path transform="matrix(1 0 0 -1 0 540)" d="M0 524.4L188.4 524.4L188.4 524.4L157.2 468L157.2 468L0 468L0 468L0 524.4z" stroke="none" fill="#27A98C" fill-rule="evenodd" /><path transform="matrix(1 0 0 -1 0 540)" d="M85 402L887 401.87" stroke="#51B8A1" stroke-width="1" fill="none" /><path transform="matrix(1 0 0 -1 0 540)" d="M52 337.27L201 337.27L201 337.27L201 370.998L201 370.998L52 370.998z" stroke="none" fill="#F0F0F0" fill-rule="evenodd" /><path transform="matrix(1 0 0 -1 0 540)" d="M201 337.27L259 337.27L259 337.27L259 370.998L259 370.998L201 370.998z" stroke="none" fill="#F0F0F0" fill-rule="evenodd" /><path transform="matrix(1 0 0 -1 0 540)" d="M259 337.27L342 337.27L342 337.27L342 370.998L342 370.998L259 370.998z" stroke="none" fill="#F0F0F0" fill-rule="evenodd" /><path transform="matrix(1 0 0 -1 0 540)" d="M342 337.27L460 337.27L460 337.27L460 370.998L460 370.998L342 370.998z" stroke="none" fill="#F0F0F0" fill-rule="evenodd" /><path transform="matrix(1 0 0 -1 0 540)" d="M52 263L201 263L201 263L201 337.272L201 337.272L52 337.272z" stroke="none" fill="#E1E1E1" fill-rule="evenodd" /><path transform="matrix(1 0 0 -1 0 540)" d="M201 263L259 263L259 263L259 337.272L259 337.272L201 337.272z" stroke="none" fill="#E1E1E1" fill-rule="evenodd" /><path transform="matrix(1 0 0 -1 0 540)" d="M259 263L342 263L342 263L342 337.272L342 337.272L259 337.272z" stroke="none" fill="#E1E1E1" fill-rule="evenodd" /><path transform="matrix(1 0 0 -1 0 540)" d="M342 263L460 263L460 263L460 337.272L460 337.272L342 337.272z" stroke="none" fill="#E1E1E1" fill-rule="evenodd" /><path transform="matrix(1 0 0 -1 0 540)" d="M52 192.41L201 192.41L201 192.41L201 262.995L201 262.995L52 262.995z" stroke="none" fill="#F0F0F0" fill-rule="evenodd" /><path transform="matrix(1 0 0 -1 0 540)" d="M201 192.41L259 192.41L259 192.41L259 262.995L259 262.995L201 262.995z" stroke="none" fill="#F0F0F0" fill-rule="evenodd" /><path transform="matrix(1 0 0 -1 0 540)" d="M259 192.41L342 192.41L342 192.41L342 262.995L342 262.995L259 262.995z" stroke="none" fill="#F0F0F0" fill-rule="evenodd" /><path transform="matrix(1 0 0 -1 0 540)" d="M342 192.41L460 192.41L460 192.41L460 262.995L460 262.995L342 262.995z" stroke="none" fill="#F0F0F0" fill-rule="evenodd" /><path transform="matrix(1 0 0 -1 0 540)" d="M52 119L201 119L201 119L201 192.415L201 192.415L52 192.415z" stroke="none" fill="#E1E1E1" fill-rule="evenodd" /><path transform="matrix(1 0 0 -1 0 540)" d="M201 119L259 119L259 119L259 192.415L259 192.415L201 192.415z" stroke="none" fill="#E1E1E1" fill-rule="evenodd" /><path transform="matrix(1 0 0 -1 0 540)" d="M259 119L342 119L342 119L342 192.415L342 192.415L259 192.415z" stroke="none" fill="#E1E1E1" fill-rule="evenodd" /><path transform="matrix(1 0 0 -1 0 540)" d="M342 119L460 119L460 119L460 192.415L460 192.415L342 192.415z" stroke="none" fill="#E1E1E1" fill-rule="evenodd" /><path transform="matrix(1 0 0 -1 0 540)" d="M52 45.585L201 45.585L201 45.585L201 119L201 119L52 119z" stroke="none" fill="#F0F0F0" fill-rule="evenodd" /><path transform="matrix(1 0 0 -1 0 540)" d="M201 45.585L259 45.585L259 45.585L259 119L259 119L201 119z" stroke="none" fill="#F0F0F0" fill-rule="evenodd" /><path transform="matrix(1 0 0 -1 0 540)" d="M259 45.585L342 45.585L342 45.585L342 119L342 119L259 119z" stroke="none" fill="#F0F0F0" fill-rule="evenodd" /><path transform="matrix(1 0 0 -1 0 540)" d="M342 45.585L460 45.585L460 45.585L460 119L460 119L342 119z" stroke="none" fill="#F0F0F0" fill-rule="evenodd" /><path transform="matrix(1 0 0 -1 0 540)" d="M201 371.5L201 45.085" stroke="#A5A5A5" stroke-width="1" fill="none" /><path transform="matrix(1 0 0 -1 0 540)" d="M259 371.5L259 45.085" stroke="#A5A5A5" stroke-width="1" fill="none" /><path transform="matrix(1 0 0 -1 0 540)" d="M342 371.5L342 45.085" stroke="#A5A5A5" stroke-width="1" fill="none" /><path transform="matrix(1 0 0 -1 0 540)" d="M51.5 337.27L460.5 337.27" stroke="#A5A5A5" stroke-width="1" fill="none" /><path transform="matrix(1 0 0 -1 0 540)" d="M51.5 263L460.5 263" stroke="#A5A5A5" stroke-width="1" fill="none" /><path transform="matrix(1 0 0 -1 0 540)" d="M51.5 192.41L460.5 192.41" stroke="#A5A5A5" stroke-width="1" fill="none" /><path transform="matrix(1 0 0 -1 0 540)" d="M51.5 119L460.5 119" stroke="#A5A5A5" stroke-width="1" fill="none" /><path transform="matrix(1 0 0 -1 0 540)" d="M52 371.5L52 45.085" stroke="#A5A5A5" stroke-width="1" fill="none" /><path transform="matrix(1 0 0 -1 0 540)" d="M460 371.5L460 45.085" stroke="#A5A5A5" stroke-width="1" fill="none" /><path transform="matrix(1 0 0 -1 0 540)" d="M51.5 371L460.5 371" stroke="#A5A5A5" stroke-width="1" fill="none" /><path transform="matrix(1 0 0 -1 0 540)" d="M51.5 45.585L460.5 45.585" stroke="#A5A5A5" stroke-width="1" fill="none" /><g clip-path="url(#3)"></g><g clip-path="url(#4)"></g><g clip-path="url(#5)"></g><g clip-path="url(#6)"></g><g clip-path="url(#7)"></g><g clip-path="url(#8)"></g><g clip-path="url(#9)"></g><g clip-path="url(#10)"></g><g clip-path="url(#11)"></g><g clip-path="url(#12)"></g><g clip-path="url(#13)"></g><g clip-path="url(#14)"></g><g clip-path="url(#15)"></g><g clip-path="url(#16)"></g><g clip-path="url(#17)"></g><g clip-path="url(#18)"></g><g clip-path="url(#19)"></g><g clip-path="url(#20)"></g><g clip-path="url(#21)"></g><g clip-path="url(#22)"></g><g clip-path="url(#23)"></g><g clip-path="url(#24)"></g><g clip-path="url(#25)"></g><g clip-path="url(#26)"></g><g clip-path="url(#27)"></g><g clip-path="url(#28)"></g><g clip-path="url(#29)"></g><g clip-path="url(#30)"></g><g clip-path="url(#31)"></g><g clip-path="url(#32)"></g><g clip-path="url(#33)"></g><g clip-path="url(#34)"></g><g clip-path="url(#35)"><g transform="matrix(0.3392857 0 0 0.3392839 362.5 283.871)"><g transform="matrix(1 0 0 1 0 0)"><image x="0" y="0" xlink:href="img_26.png" width="252" height="155" /></g></g></g><path transform="matrix(1 0 0 -1 0 540)" d="M495 335.32L641 335.32L641 335.32L641 370.597L641 370.597L495 370.597z" stroke="none" fill="#F0F0F0" fill-rule="evenodd" /><path transform="matrix(1 0 0 -1 0 540)" d="M641 335.32L702 335.32L702 335.32L702 370.597L702 370.597L641 370.597z" stroke="none" fill="#F0F0F0" fill-rule="evenodd" /><path transform="matrix(1 0 0 -1 0 540)" d="M702 335.32L785 335.32L785 335.32L785 370.597L785 370.597L702 370.597z" stroke="none" fill="#F0F0F0" fill-rule="evenodd" /><path transform="matrix(1 0 0 -1 0 540)" d="M785 335.32L903 335.32L903 335.32L903 370.597L903 370.597L785 370.597z" stroke="none" fill="#F0F0F0" fill-rule="evenodd" /><path transform="matrix(1 0 0 -1 0 540)" d="M495 278.24L641 278.24L641 278.24L641 335.325L641 335.325L495 335.325z" stroke="none" fill="#E1E1E1" fill-rule="evenodd" /><path transform="matrix(1 0 0 -1 0 540)" d="M641 278.24L702 278.24L702 278.24L702 335.325L702 335.325L641 335.325z" stroke="none" fill="#E1E1E1" fill-rule="evenodd" /><path transform="matrix(1 0 0 -1 0 540)" d="M702 278.24L785 278.24L785 278.24L785 335.325L785 335.325L702 335.325z" stroke="none" fill="#E1E1E1" fill-rule="evenodd" /><path transform="matrix(1 0 0 -1 0 540)" d="M785 278.24L903 278.24L903 278.24L903 335.325L903 335.325L785 335.325z" stroke="none" fill="#E1E1E1" fill-rule="evenodd" /><path transform="matrix(1 0 0 -1 0 540)" d="M495 219.43L641 219.43L641 219.43L641 278.237L641 278.237L495 278.237z" stroke="none" fill="#F0F0F0" fill-rule="evenodd" /><path transform="matrix(1 0 0 -1 0 540)" d="M641 219.43L702 219.43L702 219.43L702 278.237L702 278.237L641 278.237z" stroke="none" fill="#F0F0F0" fill-rule="evenodd" /><path transform="matrix(1 0 0 -1 0 540)" d="M702 219.43L785 219.43L785 219.43L785 278.237L785 278.237L702 278.237z" stroke="none" fill="#F0F0F0" fill-rule="evenodd" /><path transform="matrix(1 0 0 -1 0 540)" d="M785 219.43L903 219.43L903 219.43L903 278.237L903 278.237L785 278.237z" stroke="none" fill="#F0F0F0" fill-rule="evenodd" /><path transform="matrix(1 0 0 -1 0 540)" d="M495 162.7L641 162.7L641 162.7L641 219.428L641 219.428L495 219.428z" stroke="none" fill="#E1E1E1" fill-rule="evenodd" /><path transform="matrix(1 0 0 -1 0 540)" d="M641 162.7L702 162.7L702 162.7L702 219.428L702 219.428L641 219.428z" stroke="none" fill="#E1E1E1" fill-rule="evenodd" /><path transform="matrix(1 0 0 -1 0 540)" d="M702 162.7L785 162.7L785 162.7L785 219.428L785 219.428L702 219.428z" stroke="none" fill="#E1E1E1" fill-rule="evenodd" /><path transform="matrix(1 0 0 -1 0 540)" d="M785 162.7L903 162.7L903 162.7L903 219.428L903 219.428L785 219.428z" stroke="none" fill="#E1E1E1" fill-rule="evenodd" /><path transform="matrix(1 0 0 -1 0 540)" d="M495 102.77L641 102.77L641 102.77L641 162.701L641 162.701L495 162.701z" stroke="none" fill="#F0F0F0" fill-rule="evenodd" /><path transform="matrix(1 0 0 -1 0 540)" d="M641 102.77L702 102.77L702 102.77L702 162.701L702 162.701L641 162.701z" stroke="none" fill="#F0F0F0" fill-rule="evenodd" /><path transform="matrix(1 0 0 -1 0 540)" d="M702 102.77L785 102.77L785 102.77L785 162.701L785 162.701L702 162.701z" stroke="none" fill="#F0F0F0" fill-rule="evenodd" /><path transform="matrix(1 0 0 -1 0 540)" d="M785 102.77L903 102.77L903 102.77L903 162.701L903 162.701L785 162.701z" stroke="none" fill="#F0F0F0" fill-rule="evenodd" /><path transform="matrix(1 0 0 -1 0 540)" d="M495 45.931L641 45.931L641 45.931L641 102.773L641 102.773L495 102.773z" stroke="none" fill="#E1E1E1" fill-rule="evenodd" /><path transform="matrix(1 0 0 -1 0 540)" d="M641 45.931L702 45.931L702 45.931L702 102.773L702 102.773L641 102.773z" stroke="none" fill="#E1E1E1" fill-rule="evenodd" /><path transform="matrix(1 0 0 -1 0 540)" d="M702 45.931L785 45.931L785 45.931L785 102.773L785 102.773L702 102.773z" stroke="none" fill="#E1E1E1" fill-rule="evenodd" /><path transform="matrix(1 0 0 -1 0 540)" d="M785 45.931L903 45.931L903 45.931L903 102.773L903 102.773L785 102.773z" stroke="none" fill="#E1E1E1" fill-rule="evenodd" /><path transform="matrix(1 0 0 -1 0 540)" d="M641 371.1L641 45.431" stroke="#A5A5A5" stroke-width="1" fill="none" /><path transform="matrix(1 0 0 -1 0 540)" d="M702 371.1L702 45.431" stroke="#A5A5A5" stroke-width="1" fill="none" /><path transform="matrix(1 0 0 -1 0 540)" d="M785 371.1L785 45.431" stroke="#A5A5A5" stroke-width="1" fill="none" /><path transform="matrix(1 0 0 -1 0 540)" d="M494.5 335.32L903.5 335.32" stroke="#A5A5A5" stroke-width="1" fill="none" /><path transform="matrix(1 0 0 -1 0 540)" d="M494.5 278.24L903.5 278.24" stroke="#A5A5A5" stroke-width="1" fill="none" /><path transform="matrix(1 0 0 -1 0 540)" d="M494.5 219.43L903.5 219.43" stroke="#A5A5A5" stroke-width="1" fill="none" /><path transform="matrix(1 0 0 -1 0 540)" d="M494.5 162.7L903.5 162.7" stroke="#A5A5A5" stroke-width="1" fill="none" /><path transform="matrix(1 0 0 -1 0 540)" d="M494.5 102.77L903.5 102.77" stroke="#A5A5A5" stroke-width="1" fill="none" /><path transform="matrix(1 0 0 -1 0 540)" d="M495 371.1L495 45.431" stroke="#A5A5A5" stroke-width="1" fill="none" /><path transform="matrix(1 0 0 -1 0 540)" d="M903 371.1L903 45.431" stroke="#A5A5A5" stroke-width="1" fill="none" /><path transform="matrix(1 0 0 -1 0 540)" d="M494.5 370.6L903.5 370.6" stroke="#A5A5A5" stroke-width="1" fill="none" /><path transform="matrix(1 0 0 -1 0 540)" d="M494.5 45.931L903.5 45.931" stroke="#A5A5A5" stroke-width="1" fill="none" /><g clip-path="url(#36)"></g><g clip-path="url(#37)"></g><g clip-path="url(#38)"></g><g clip-path="url(#39)"></g><g clip-path="url(#40)"></g><g clip-path="url(#41)"></g><g clip-path="url(#42)"></g><g clip-path="url(#43)"></g><g clip-path="url(#44)"></g><g clip-path="url(#45)"></g><g clip-path="url(#46)"></g><g clip-path="url(#47)"></g><g clip-path="url(#48)"></g><g clip-path="url(#49)"></g><g clip-path="url(#50)"></g><g clip-path="url(#51)"></g><g clip-path="url(#52)"></g><g clip-path="url(#53)"></g><g clip-path="url(#54)"></g><g clip-path="url(#55)"></g><g clip-path="url(#56)"></g><g clip-path="url(#57)"></g><g clip-path="url(#58)"></g><g clip-path="url(#59)"></g><g clip-path="url(#60)"></g><g clip-path="url(#61)"></g><g clip-path="url(#62)"></g><g clip-path="url(#63)"></g><g clip-path="url(#64)"></g><g clip-path="url(#65)"></g><g clip-path="url(#66)"></g><g clip-path="url(#67)"><g transform="matrix(0.3277512 0 0 0.3270879 809.97 314.11)"><g transform="matrix(1 0 0 1 0 0)"><image x="0" y="0" xlink:href="img_27.png" width="209" height="182" /></g></g></g><g clip-path="url(#68)"><g transform="matrix(0.3273208 0 0 0.3278044 795.14 199.143)"><g transform="matrix(1 0 0 1 0 0)"><image x="0" y="0" xlink:href="img_28.png" width="265" height="179" /></g></g></g><g clip-path="url(#69)"><g transform="matrix(0.326837 0 0 0.3271158 805.75 373.818)"><g transform="matrix(1 0 0 1 0 0)"><image x="0" y="0" xlink:href="img_29.png" width="227" height="190" /></g></g></g><g clip-path="url(#70)"><g transform="matrix(0.3272472 0 0 0.3275265 360.63 349.502)"><g transform="matrix(1 0 0 1 0 0)"><image x="0" y="0" xlink:href="img_30.png" width="267" height="207" /></g></g></g><g clip-path="url(#71)"><g transform="matrix(0.3276536 0 0 0.3277972 343.63 430.125)"><g transform="matrix(1 0 0 1 0 0)"><image x="0" y="0" xlink:href="img_31.png" width="358" height="143" /></g></g></g><g clip-path="url(#72)"><g transform="matrix(0.3273793 0 0 0.327381 356.13 208.125)"><g transform="matrix(1 0 0 1 0 0)"><image x="0" y="0" xlink:href="img_32.png" width="261" height="189" /></g></g></g><g clip-path="url(#73)"><g transform="matrix(0.3269903 0 0 0.3271276 805.58 265.665)"><g transform="matrix(1 0 0 1 0 0)"><image x="0" y="0" xlink:href="img_33.png" width="206" height="141" /></g></g></g><g clip-path="url(#74)"><g transform="matrix(0.3234616 0.05160059 -0.05173983 0.324322 796.1853 439.388)"><g transform="matrix(1 0 0 1 0 0)"><image x="0" y="0" xlink:href="img_34.png" width="338" height="118" /></g></g></g></g></g></g></svg>