<svg xmlns="http://www.w3.org/2000/svg" xmlns:xlink="http://www.w3.org/1999/xlink" id="body_17" preserveAspectRatio="xMinYMin meet" viewBox="0 0 1280 720"><defs><clipPath id="1"><path d="M0 540L0 0L0 0L960 0L960 0L960 540L960 540L0 540z" /></clipPath><clipPath id="2"><path d="M0 539.9999L960 539.9999L960 539.9999L960 -0.0001220703L960 -0.0001220703L0 -0.0001220703z" /></clipPath><clipPath id="3"><path d="M-1.89E-07 539.9998L960 539.9998L960 539.9998L960 -0.0001831055L960 -0.0001831055L-1.89E-07 -0.0001831055z" /></clipPath></defs><g transform="matrix(1.333333 0 0 1.333333 0 0)"><g><g clip-path="url(#1)"><g clip-path="url(#2)"><path transform="matrix(1 0 0 -1 0 540)" d="M0 6.104E-06L960 6.104E-06L960 6.104E-06L960 540L960 540L0 540z" stroke="none" fill="#E1EAE7" fill-rule="evenodd" /></g><path transform="matrix(1 0 0 -1 0 540)" d="M0 519.6L188.4 519.6L188.4 519.6L176.2 468L176.2 468L0 468L0 468L0 519.6z" stroke="none" fill="#27A98C" fill-rule="evenodd" fill-opacity="0.5568628" /><path transform="matrix(1 0 0 -1 0 540)" d="M0 524.4L188.4 524.4L188.4 524.4L157.2 468L157.2 468L0 468L0 468L0 524.4z" stroke="none" fill="#27A98C" fill-rule="evenodd" /><path transform="matrix(1 0 0 -1 0 540)" d="M85 402L887 401.87" stroke="#51B8A1" stroke-width="1" fill="none" /><path transform="matrix(1 0 0 -1 0 540)" d="M472 77.214L901.74 77.214L901.74 77.214L901.74 187.824L901.74 187.824L472 187.824z" stroke="none" fill="#7F7F7F" fill-rule="evenodd" /><g clip-path="url(#3)"><g transform="matrix(0.3601891 0 0 0.3601471 91.909 177.66)"><g transform="matrix(1 0 0 1 0 0)"><image x="0" y="0" xlink:href="img_36.png" width="899" height="680" /></g></g></g><path transform="matrix(1 0 0 -1 0 540)" d="M91.308 116.94L416.218 116.94L416.218 116.94L416.218 362.94L416.218 362.94L91.308 362.94z" stroke="#7F7F7F" stroke-width="1" fill="none" /></g></g></g></svg>