<svg xmlns="http://www.w3.org/2000/svg" xmlns:xlink="http://www.w3.org/1999/xlink" id="body_14" preserveAspectRatio="xMinYMin meet" viewBox="0 0 1280 720"><defs><clipPath id="1"><path d="M0 540L0 0L0 0L960 0L960 0L960 540L960 540L0 540z" /></clipPath><clipPath id="2"><path d="M0 539.9999L960 539.9999L960 539.9999L960 -0.0001220703L960 -0.0001220703L0 -0.0001220703z" /></clipPath><clipPath id="3"><path d="M-2.3E-07 539.9998L960 539.9998L960 539.9998L960 -0.0001831055L960 -0.0001831055L-2.3E-07 -0.0001831055z" /></clipPath></defs><g transform="matrix(1.333333 0 0 1.333333 0 0)"><g><g clip-path="url(#1)"><g clip-path="url(#2)"><path transform="matrix(1 0 0 -1 0 540)" d="M0 6.104E-06L960 6.104E-06L960 6.104E-06L960 540L960 540L0 540z" stroke="none" fill="#E1EAE7" fill-rule="evenodd" /></g><path transform="matrix(1 0 0 -1 0 540)" d="M0 519.6L188.4 519.6L188.4 519.6L176.2 468L176.2 468L0 468L0 468L0 519.6z" stroke="none" fill="#27A98C" fill-rule="evenodd" fill-opacity="0.5568628" /><path transform="matrix(1 0 0 -1 0 540)" d="M0 524.4L188.4 524.4L188.4 524.4L157.2 468L157.2 468L0 468L0 468L0 524.4z" stroke="none" fill="#27A98C" fill-rule="evenodd" /><path transform="matrix(1 0 0 -1 0 540)" d="M85 402L887 401.87" stroke="#51B8A1" stroke-width="1" fill="none" /><g clip-path="url(#3)"><g transform="matrix(0.4728442 0 0 0.4728358 56.25 166.88)"><g transform="matrix(1 0 0 1 0 0)"><image x="0" y="0" xlink:href="img_23.png" width="770" height="603" /></g></g></g></g></g></g></svg>